<svg width="58" height="62" viewBox="0 0 58 62" fill="none" xmlns="http://www.w3.org/2000/svg">
<path d="M38.0814 2.70227L38.0815 2.70227L38.0825 2.69553C38.2331 1.66633 37.5544 0.682695 36.512 0.526339L36.4751 0.520807H36.4402C35.4329 0.369922 34.4733 1.05577 34.3404 2.10023L33.0796 9.98508C33.0795 9.98603 33.0793 9.98698 33.0792 9.98793C32.9022 11.0333 33.5971 12.0122 34.6688 12.1663C35.6873 12.3181 36.6631 11.6304 36.819 10.5787C36.8191 10.5776 36.8193 10.5764 36.8195 10.5752L38.0814 2.70227ZM8.43197 23.7307L8.43267 23.7311C9.32009 24.2636 10.5046 23.995 11.028 23.0792L11.4554 22.3311H11.2714C11.3599 21.6137 11.0294 20.8807 10.4006 20.4996L10.3997 20.499L3.55685 16.3707L3.55581 16.3701C2.66067 15.833 1.4846 16.1335 0.964802 17.0146C0.427726 17.9119 0.714649 19.0598 1.59981 19.6162L1.59976 19.6163L1.60795 19.6212L8.43197 23.7307ZM22.7213 14.7438L22.7285 14.7404L22.7356 14.7367C23.6802 14.2517 24.0346 13.1248 23.5789 12.1881L23.5779 12.1861L20.0528 5.02276L20.0529 5.02273L20.049 5.01513C19.5722 4.08659 18.4467 3.68381 17.5071 4.17793C16.5787 4.65626 16.1874 5.77221 16.6261 6.70119L16.626 6.70123L16.63 6.70941L20.174 13.8727L20.1738 13.8728L20.18 13.8844C20.6566 14.7875 21.7506 15.2036 22.7213 14.7438ZM44.8373 12.917L44.8437 12.9232L44.8503 12.9291C45.6155 13.6178 46.8354 13.5734 47.5338 12.7999C47.5345 12.7992 47.5351 12.7984 47.5358 12.7977L52.9423 6.92024L52.9474 6.9148L52.9522 6.90921C53.6062 6.15463 53.5979 4.95777 52.8177 4.25241C52.0747 3.56392 50.8522 3.58208 50.1499 4.36004C50.1492 4.36075 50.1486 4.36146 50.148 4.36217L44.7435 10.2374C44.7431 10.2378 44.7427 10.2382 44.7424 10.2386C44.0447 10.9892 44.0807 12.1855 44.8373 12.917ZM12.7507 28.6569L12.7511 28.6582L18.9583 50.9301C18.337 52.0208 18.1315 53.3518 18.5006 54.6527C19.1384 57.0228 21.4592 58.4806 23.8332 58.1865C24.7384 60.4664 27.2612 61.7568 29.6926 61.0712C29.693 61.071 29.6934 61.0709 29.6938 61.0708L53.8769 54.3795C56.4595 53.6656 58.014 50.9596 57.2791 48.353C56.9961 47.3302 56.4007 46.4755 55.6263 45.8607C55.6019 45.6115 55.5566 45.3617 55.4892 45.1138L55.4885 45.1112L49.4677 23.4258C49.4504 23.0967 49.3973 22.765 49.3059 22.436C48.6992 20.1706 46.4919 18.7737 44.23 19.1003C43.3537 17.0086 40.992 15.846 38.7588 16.448L38.7588 16.4479L38.751 16.4502C38.5884 16.4968 38.4301 16.5518 38.2764 16.6145L16.0966 22.7827C16.0965 22.7827 16.0964 22.7828 16.0963 22.7828C14.9891 23.0883 14.0887 23.7774 13.4969 24.6649C12.6799 25.7666 12.3569 27.2293 12.7507 28.6569ZM31.2758 46.033L27.694 33.2087L37.8361 30.399L41.395 43.2173L31.2758 46.033Z" fill="white" stroke="white"/>
<g style="mix-blend-mode:darken">
<path fill-rule="evenodd" clip-rule="evenodd" d="M10.5939 22.9609C10.2168 23.6207 9.34969 23.8281 8.68991 23.4322L1.86589 19.3227C1.20611 18.908 0.99875 18.0597 1.39462 17.3999C1.77164 16.759 2.63878 16.5328 3.29856 16.9286L10.1414 21.057C10.7635 21.434 10.9897 22.3011 10.575 22.9609H10.5939Z" fill="#8CC541"/>
</g>
<g style="mix-blend-mode:darken">
<path fill-rule="evenodd" clip-rule="evenodd" d="M34.7413 11.8014C33.9496 11.6883 33.4406 10.9719 33.5725 10.1991L34.8356 2.30053C34.9298 1.52765 35.6461 1.01867 36.4002 1.15063H36.4379C37.1919 1.26373 37.7009 1.98007 37.5878 2.75295L36.3248 10.6326C36.2117 11.4055 35.4953 11.9145 34.7413 11.8014Z" fill="#FCEE21"/>
</g>
<g style="mix-blend-mode:darken">
<path fill-rule="evenodd" clip-rule="evenodd" d="M22.5073 14.4218C21.791 14.7611 20.9804 14.4595 20.6222 13.7809L17.0782 6.61752C16.7578 5.93889 17.0405 5.10945 17.738 4.75128C18.4166 4.39311 19.2461 4.67588 19.6043 5.37336L23.1294 12.5367C23.4687 13.2342 23.2048 14.0636 22.5073 14.4218Z" fill="#F69321"/>
</g>
<g style="mix-blend-mode:darken">
<path fill-rule="evenodd" clip-rule="evenodd" d="M45.1848 12.6873C44.6193 12.1406 44.6004 11.2546 45.1094 10.708L50.5196 4.82649C51.0286 4.26096 51.9334 4.24211 52.4801 4.75108C53.0456 5.26006 53.0645 6.14605 52.5744 6.71157L47.1642 12.5931C46.6552 13.1586 45.7504 13.1963 45.1848 12.6873Z" fill="#27B0E5"/>
</g>
<g style="mix-blend-mode:darken">
<path fill-rule="evenodd" clip-rule="evenodd" d="M56.7975 48.6171C57.4573 50.9547 56.0623 53.3864 53.7436 54.0274L29.5579 60.7194C27.2204 61.3792 24.7887 60.0031 24.1477 57.6844C23.5257 55.3846 24.8641 52.934 27.2016 52.2742L51.4061 45.5822C53.7248 44.9412 56.1565 46.2985 56.7975 48.6171Z" fill="#27B0E5"/>
</g>
<g style="mix-blend-mode:darken">
<path fill-rule="evenodd" clip-rule="evenodd" d="M51.5945 45.582C52.2355 47.9384 50.8593 50.3513 48.5595 50.9922L24.3738 57.7032C22.0363 58.3252 19.6046 56.968 18.9825 54.6493C18.3227 52.3307 19.6988 49.8989 22.0175 49.258L46.2032 42.5282C48.5407 41.8873 50.9724 43.2822 51.6134 45.582H51.5945Z" fill="#3BB34A"/>
</g>
<g style="mix-blend-mode:darken">
<path fill-rule="evenodd" clip-rule="evenodd" d="M18.285 31.1802C17.6818 28.9935 18.9637 26.7314 21.1504 26.1282L43.7903 19.832C45.977 19.2288 48.2391 20.5106 48.8235 22.6973C49.4267 24.8652 48.1637 27.1461 45.9959 27.7494L23.3371 34.0267C21.1692 34.6299 18.8883 33.3481 18.285 31.1802Z" fill="#E175AC"/>
</g>
<g style="mix-blend-mode:darken">
<path fill-rule="evenodd" clip-rule="evenodd" d="M52.1411 50.4268C49.9733 51.0489 47.7112 49.7482 47.1079 47.5803L40.8117 24.9216C40.2274 22.7537 41.5092 20.4728 43.6582 19.8695C45.8449 19.2475 48.107 20.5293 48.7103 22.6972L55.0065 45.3748C55.5908 47.5238 54.309 49.8236 52.1411 50.408V50.4268Z" fill="#F69321"/>
</g>
<g style="mix-blend-mode:darken">
<path fill-rule="evenodd" clip-rule="evenodd" d="M47.3718 47.6556C45.1851 48.2399 42.923 46.9581 42.3198 44.8091L36.0236 22.1315C35.4392 19.9448 36.7211 17.6826 38.8889 17.0606C41.0568 16.4762 43.3566 17.7581 43.941 19.9259L50.2372 42.6224C50.8027 44.7714 49.5774 47.0523 47.3718 47.6556Z" fill="#EF4137"/>
</g>
<g style="mix-blend-mode:darken">
<path fill-rule="evenodd" clip-rule="evenodd" d="M16.0791 23.5829C18.2847 22.9797 20.5656 24.2615 21.15 26.4482L27.4462 49.107C28.0494 51.2749 26.7487 53.5558 24.5809 54.159C22.413 54.7623 20.1321 53.4804 19.5477 51.3126L13.2326 28.6538C12.6294 26.4671 13.9113 24.1861 16.0791 23.6018V23.5829Z" fill="#C51B8B"/>
</g>
<g style="mix-blend-mode:darken" opacity="0.6">
<path fill-rule="evenodd" clip-rule="evenodd" d="M13.3642 28.4654C12.7609 26.2787 14.0428 23.9978 16.2295 23.3945L38.8694 17.0983C41.0561 16.514 43.3371 17.7958 43.9214 19.9637C44.5435 22.1315 43.224 24.4125 41.075 25.0346L18.4162 31.3308C16.2295 31.934 13.9485 30.6333 13.3642 28.4843V28.4654Z" fill="#27B0E5"/>
</g>
<g style="mix-blend-mode:darken">
<path fill-rule="evenodd" clip-rule="evenodd" d="M20.9807 26.3351C23.1486 25.7319 25.4296 27.0138 26.0139 29.1816L32.3478 51.8592C32.9322 54.0459 31.6503 56.308 29.4825 56.9113C27.2958 57.5333 25.0337 56.2326 24.4116 54.0459L18.1343 31.3872C17.531 29.2193 18.8129 26.9195 20.9807 26.3351Z" fill="#FCEE21"/>
</g>
</svg>
