<svg width="280" height="80" viewBox="0 0 280 80" fill="none" xmlns="http://www.w3.org/2000/svg">
<path d="M126.828 30.4766C126.828 32.2036 126.789 32.2812 126.324 32.5529C123.861 33.853 120.408 34.2799 118.178 34.2799C115.269 34.2799 109.8 33.8918 105.553 30.1661C103.206 28.1286 100.976 24.0149 100.976 19.222C100.976 13.0707 103.963 8.74353 107.395 6.58963C110.847 4.43573 114.649 4.16406 117.616 4.16406C120.04 4.16406 122.755 4.66857 123.492 4.82381C124.307 5.01785 125.645 5.1731 126.595 5.21191C126.983 5.25072 127.061 5.40595 127.061 5.56119C127.061 6.10452 126.789 7.17176 126.789 11.0139C126.789 11.6348 126.711 11.8288 126.44 11.8288C126.246 11.8288 126.207 11.596 126.168 11.2467C126.13 10.7034 125.936 9.63613 125.354 8.70471C124.404 7.24937 121.281 5.59999 116.336 5.59999C113.912 5.59999 111.041 5.83286 108.113 8.14199C105.883 9.9078 104.312 13.4006 104.312 17.9025C104.312 23.3163 107.046 27.236 108.384 28.5361C111.41 31.4856 114.92 32.6499 118.45 32.6499C119.827 32.6499 121.824 32.417 122.833 31.8349C123.337 31.5632 123.608 31.1363 123.608 30.496V23.9567C123.608 20.8519 123.414 20.425 121.882 19.9981C121.572 19.9205 120.932 19.8817 120.583 19.8817C120.428 19.8817 120.273 19.8041 120.273 19.6489C120.273 19.416 120.467 19.3384 120.893 19.3384C122.619 19.3384 125.044 19.4548 125.237 19.4548C125.431 19.4548 127.856 19.3384 129 19.3384C129.427 19.3384 129.62 19.416 129.62 19.6489C129.62 19.8041 129.465 19.8817 129.31 19.8817C129.039 19.8817 128.806 19.9205 128.36 19.9981C127.332 20.1922 127.022 20.8519 126.944 22.1908C126.867 23.4133 126.867 24.5776 126.867 26.1882V30.496L126.828 30.4766Z" fill="url(#paint0_linear_427_23205)"/>
<path d="M134.081 19.1832C134.081 12.9543 138.619 4.16406 149.208 4.16406C157.838 4.16406 164.297 9.61673 164.297 18.5622C164.297 27.5077 158.226 34.2799 148.976 34.2799C138.464 34.2799 134.081 26.0912 134.081 19.1832ZM160.612 19.6489C160.612 10.4317 155.007 5.48357 148.937 5.48357C142.517 5.48357 137.727 9.71376 137.727 18.1159C137.727 27.0614 143.099 32.8245 150.003 32.8245C153.456 32.8245 160.592 30.8259 160.592 19.6489H160.612Z" fill="url(#paint1_linear_427_23205)"/>
<path d="M176.243 22.6763C176.243 28.323 176.398 30.7874 177.096 31.4666C177.717 32.0875 178.706 32.3592 181.712 32.3592C183.748 32.3592 185.435 32.3204 186.366 31.2143C186.87 30.5934 187.258 29.6425 187.355 28.9052C187.394 28.5947 187.472 28.4007 187.704 28.4007C187.898 28.4007 187.937 28.5559 187.937 28.9828C187.937 29.4097 187.666 31.7188 187.355 32.8249C187.084 33.7175 186.967 33.8533 184.931 33.8533C181.634 33.8533 178.357 33.6205 174.633 33.6205C173.45 33.6205 172.286 33.7369 170.871 33.7369C170.444 33.7369 170.25 33.6593 170.25 33.4264C170.25 33.31 170.328 33.1936 170.56 33.1936C170.909 33.1936 171.375 33.116 171.705 33.0383C172.48 32.8831 172.674 32.0293 172.81 30.9232C173.004 29.3127 173.004 26.2662 173.004 22.5793V15.8265C173.004 9.83055 173.004 8.76329 172.926 7.5214C172.849 6.22129 172.538 5.60035 171.278 5.32869C170.968 5.25107 170.328 5.21227 169.979 5.21227C169.823 5.21227 169.668 5.13465 169.668 4.97941C169.668 4.74656 169.862 4.66895 170.289 4.66895C172.015 4.66895 174.439 4.78537 174.633 4.78537C174.827 4.78537 177.62 4.66895 178.783 4.66895C179.21 4.66895 179.404 4.74656 179.404 4.97941C179.404 5.13465 179.249 5.21227 179.094 5.21227C178.822 5.21227 178.279 5.25107 177.833 5.32869C176.728 5.52274 176.417 6.18248 176.34 7.5214C176.262 8.74388 176.262 9.83055 176.262 15.8265V22.6569L176.243 22.6763Z" fill="url(#paint2_linear_427_23205)"/>
<path d="M195.287 15.8265C195.287 9.83046 195.287 8.7632 195.21 7.52131C195.132 6.22121 194.938 5.60027 193.678 5.32861C193.367 5.25099 192.727 5.21218 192.378 5.21218C192.107 5.21218 191.952 5.13456 191.952 4.97932C191.952 4.74647 192.145 4.66886 192.572 4.66886C194.298 4.66886 196.722 4.78528 196.916 4.78528C197.382 4.78528 199.787 4.66886 202.094 4.66886C205.896 4.66886 212.916 4.31957 217.493 9.05427C219.413 11.0529 221.217 14.2353 221.217 18.8148C221.217 23.6465 219.219 27.3721 217.066 29.6425C215.418 31.3695 211.966 34.0667 205.43 34.0667C203.782 34.0667 201.745 33.9502 200.097 33.8338C198.41 33.7174 197.11 33.601 196.916 33.601C196.839 33.601 196.179 33.601 195.384 33.6398C194.608 33.6398 193.736 33.7174 193.154 33.7174C192.727 33.7174 192.533 33.6398 192.533 33.4069C192.533 33.2905 192.611 33.1741 192.921 33.1741C193.348 33.1353 193.658 33.0965 193.988 33.0188C194.764 32.8636 194.938 32.0098 195.093 30.9038C195.287 29.2932 195.287 26.2467 195.287 22.5598V15.807V15.8265ZM198.507 19.979C198.507 24.054 198.545 27.5856 198.584 28.3229C198.623 29.2738 198.701 30.8261 199.011 31.2336C199.515 31.971 201.008 32.7666 205.547 32.7666C209.115 32.7666 212.412 31.4665 214.681 29.1961C216.679 27.2363 217.745 23.5494 217.745 20.0178C217.745 15.1473 215.631 11.9844 214.06 10.335C210.453 6.53169 206.07 5.98837 201.513 5.98837C200.737 5.98837 199.321 6.10479 199.011 6.26003C198.662 6.41527 198.545 6.6093 198.545 7.0362C198.507 8.3363 198.507 12.256 198.507 15.2249V19.979Z" fill="url(#paint3_linear_427_23205)"/>
<path d="M229.925 15.8265C229.925 9.83048 229.925 8.76322 229.847 7.52133C229.77 6.22123 229.459 5.60029 228.199 5.32862C227.927 5.25101 227.423 5.25101 227.093 5.2122C226.822 5.17339 226.589 5.13458 226.589 4.97934C226.589 4.74649 226.783 4.66888 227.21 4.66888C228.102 4.66888 229.13 4.66887 231.554 4.7853C231.825 4.7853 239.467 4.78531 240.339 4.7465C241.193 4.70769 241.871 4.63007 242.104 4.51364C242.337 4.39721 242.414 4.3584 242.531 4.3584C242.647 4.3584 242.686 4.51364 242.686 4.70768C242.686 4.97934 242.453 5.44505 242.376 6.5123C242.337 7.09444 242.298 7.81241 242.22 8.82144C242.182 9.20953 242.065 9.48119 241.91 9.48119C241.677 9.48119 241.6 9.28714 241.6 8.97667C241.6 8.47215 241.522 8.02586 241.406 7.71539C241.134 6.82278 240.339 6.45409 238.633 6.29885C237.973 6.22123 233.804 6.18243 233.377 6.18243C233.222 6.18243 233.144 6.29885 233.144 6.57051V17.1654C233.144 17.437 233.183 17.5535 233.377 17.5535C233.881 17.5535 238.594 17.5535 239.486 17.4759C240.514 17.3982 241.018 17.2818 241.406 16.8161C241.6 16.5832 241.716 16.428 241.871 16.428C241.988 16.428 242.065 16.5056 242.065 16.7385C242.065 16.9713 241.871 17.6311 241.755 18.8924C241.639 20.076 241.639 20.9687 241.6 21.512C241.561 21.9001 241.483 22.0941 241.328 22.0941C241.096 22.0941 241.057 21.7836 241.057 21.4732C241.057 21.1239 241.018 20.7358 240.902 20.4059C240.747 19.8238 240.281 19.2999 238.904 19.1446C237.876 19.0282 234.075 18.9506 233.416 18.9506C233.222 18.9506 233.144 19.067 233.144 19.2223V22.5986C233.144 23.8987 233.105 28.3618 233.144 29.1768C233.222 30.7485 233.454 31.6023 234.405 31.9904C235.064 32.2621 236.092 32.3397 237.585 32.3397C238.73 32.3397 240.01 32.3009 241.037 31.9904C242.259 31.6023 242.686 30.8067 242.996 29.138C243.074 28.7111 243.151 28.5558 243.345 28.5558C243.578 28.5558 243.578 28.8663 243.578 29.138C243.578 29.4484 243.268 32.0486 243.074 32.8636C242.802 33.8532 242.492 33.8533 240.999 33.8533C238.167 33.8533 236.887 33.7757 235.394 33.7368C233.862 33.698 232.097 33.6204 230.604 33.6204C229.673 33.6204 228.761 33.7757 227.772 33.7368C227.345 33.7368 227.152 33.6592 227.152 33.4264C227.152 33.3099 227.345 33.2323 227.578 33.1935C227.966 33.1547 228.199 33.1547 228.47 33.0771C229.285 32.883 229.77 32.3397 229.847 29.4678C229.886 27.9737 229.925 26.0138 229.925 22.5986V15.8459V15.8265Z" fill="url(#paint4_linear_427_23205)"/>
<path d="M252.072 22.4043C252.072 8.53007 252.15 13.5364 252.111 6.0851C252.111 4.59096 252.228 4.16406 252.538 4.16406C252.848 4.16406 253.488 5.01786 253.876 5.38654C254.458 6.04629 260.179 12.2169 266.094 18.5622C269.895 22.6372 274.084 27.3136 275.306 28.5943L274.879 9.0734C274.841 6.57022 274.569 5.73583 273.386 5.42536C272.688 5.27012 272.087 5.23132 271.738 5.23132C271.311 5.23132 271.195 5.11488 271.195 4.95964C271.195 4.72679 271.505 4.68798 271.97 4.68798C273.696 4.68798 275.539 4.80441 275.965 4.80441C276.392 4.80441 277.653 4.68798 279.224 4.68798C279.65 4.68798 279.922 4.72679 279.922 4.95964C279.922 5.11488 279.767 5.19251 279.495 5.23132C279.185 5.27013 278.952 5.30892 278.506 5.38654C277.439 5.6194 277.168 6.20153 277.168 8.84054L277.09 31.2722C277.09 33.8142 277.013 34.0082 276.741 34.0082C276.431 34.0082 275.965 33.5813 273.929 31.5438C273.502 31.1557 267.975 25.509 263.903 21.143C259.442 16.3501 255.117 11.499 253.876 10.1212L254.38 28.5167C254.458 31.6603 254.846 32.6693 255.874 32.9798C256.611 33.1738 257.444 33.2126 257.794 33.2126C257.987 33.2126 258.104 33.2902 258.104 33.4455C258.104 33.6783 257.871 33.7559 257.406 33.7559C255.214 33.7559 253.682 33.6395 253.333 33.6395C252.984 33.6395 251.374 33.7559 249.648 33.7559C249.26 33.7559 249.028 33.7171 249.028 33.4455C249.028 33.2902 249.144 33.2126 249.338 33.2126C249.648 33.2126 250.327 33.1738 250.909 32.9798C251.859 32.7081 252.053 31.602 252.053 28.1092V22.4237L252.072 22.4043Z" fill="url(#paint5_linear_427_23205)"/>
<path d="M109.633 66.3913C109.633 72.036 109.788 74.4996 110.486 75.1785C111.107 75.7992 112.096 76.0708 115.102 76.0708C117.138 76.0708 118.825 76.032 119.756 74.9263C120.261 74.3056 120.649 73.3551 120.746 72.618C120.784 72.3076 120.862 72.1137 121.095 72.1137C121.289 72.1137 121.327 72.2688 121.327 72.6956C121.327 73.1223 121.056 75.4307 120.746 76.5364C120.474 77.4287 120.358 77.5644 118.321 77.5644C115.024 77.5644 111.747 77.3316 108.023 77.3316C106.84 77.3316 105.676 77.4481 104.26 77.4481C103.834 77.4481 103.64 77.3705 103.64 77.1377C103.64 77.0213 103.717 76.9049 103.95 76.9049C104.299 76.9049 104.765 76.8273 105.094 76.7497C105.87 76.5946 106.064 75.741 106.2 74.6354C106.394 73.0253 106.394 69.9799 106.394 66.2943V59.5439C106.394 53.55 106.394 52.4831 106.316 51.2416C106.239 49.9419 105.928 49.3212 104.668 49.0497C104.357 48.9721 103.717 48.9333 103.368 48.9333C103.213 48.9333 103.058 48.8557 103.058 48.7005C103.058 48.4677 103.252 48.3901 103.678 48.3901C105.405 48.3901 107.829 48.5065 108.023 48.5065C108.217 48.5065 111.01 48.3901 112.173 48.3901C112.6 48.3901 112.794 48.4677 112.794 48.7005C112.794 48.8557 112.639 48.9333 112.484 48.9333C112.212 48.9333 111.669 48.9721 111.223 49.0497C110.117 49.2436 109.807 49.9032 109.73 51.2416C109.652 52.4637 109.652 53.55 109.652 59.5439V66.3719L109.633 66.3913Z" fill="url(#paint6_linear_427_23205)"/>
<path d="M128.658 59.5439C128.658 53.55 128.658 52.4831 128.581 51.2416C128.503 49.9419 128.115 49.2824 127.281 49.0885C126.855 48.9721 126.351 48.9333 126.098 48.9333C125.943 48.9333 125.788 48.8557 125.788 48.7005C125.788 48.4677 125.982 48.3901 126.409 48.3901C127.669 48.3901 130.094 48.5065 130.288 48.5065C130.482 48.5065 132.906 48.3901 134.05 48.3901C134.477 48.3901 134.671 48.4677 134.671 48.7005C134.671 48.8557 134.516 48.9333 134.36 48.9333C134.089 48.9333 133.856 48.9721 133.41 49.0497C132.382 49.2436 132.072 49.9032 131.994 51.2416C131.917 52.4637 131.917 53.55 131.917 59.5439V66.2943C131.917 69.9799 131.917 73.0059 132.111 74.6353C132.227 75.741 132.46 76.5945 133.604 76.7497C134.147 76.8273 134.942 76.9049 135.175 76.9049C135.524 76.9049 135.64 77.0213 135.64 77.1377C135.64 77.3317 135.485 77.4481 135.059 77.4481C132.945 77.4481 130.482 77.3316 130.307 77.3316C130.132 77.3316 127.689 77.4481 126.544 77.4481C126.118 77.4481 125.924 77.3705 125.924 77.1377C125.924 77.0213 126.001 76.9049 126.351 76.9049C126.583 76.9049 127.01 76.8661 127.34 76.7885C128.115 76.6333 128.329 75.7604 128.484 74.6353C128.678 73.0253 128.678 69.9799 128.678 66.2943V59.5439H128.658Z" fill="url(#paint7_linear_427_23205)"/>
<path d="M140.606 62.8992C140.606 56.6725 145.144 47.8853 155.733 47.8853C164.364 47.8853 170.822 53.336 170.822 62.2784C170.822 71.2208 164.752 77.9907 155.501 77.9907C144.989 77.9907 140.606 69.8048 140.606 62.8992ZM167.137 63.3647C167.137 54.1507 161.532 49.2043 155.462 49.2043C149.042 49.2043 144.252 53.433 144.252 61.8323C144.252 70.7747 149.624 76.5358 156.528 76.5358C159.981 76.5358 167.118 74.5378 167.118 63.3647H167.137Z" fill="url(#paint8_linear_427_23205)"/>
<path d="M178.463 66.1192C178.463 52.2497 178.541 57.2544 178.502 49.8056C178.502 48.312 178.618 47.8853 178.929 47.8853C179.239 47.8853 179.879 48.7388 180.267 49.1073C180.849 49.7668 186.57 55.9353 192.485 62.2784C196.287 66.352 200.476 71.0268 201.698 72.3071L201.271 52.7929C201.232 50.2906 200.961 49.4565 199.778 49.1461C199.079 48.9909 198.478 48.9521 198.129 48.9521C197.702 48.9521 197.586 48.8357 197.586 48.6806C197.586 48.4478 197.896 48.409 198.362 48.409C200.088 48.409 201.93 48.5254 202.357 48.5254C202.784 48.5254 204.044 48.409 205.615 48.409C206.042 48.409 206.313 48.4478 206.313 48.6806C206.313 48.8357 206.158 48.9133 205.887 48.9521C205.576 48.9909 205.344 49.0297 204.898 49.1073C203.831 49.3401 203.559 49.922 203.559 52.5601L203.482 74.984C203.482 77.5251 203.404 77.7191 203.133 77.7191C202.822 77.7191 202.357 77.2923 200.321 75.2556C199.894 74.8676 194.367 69.2228 190.294 64.8583C185.833 60.0671 181.508 55.2176 180.267 53.8404L180.771 72.2295C180.849 75.3719 181.237 76.3806 182.264 76.691C183.001 76.885 183.835 76.9238 184.184 76.9238C184.378 76.9238 184.495 77.0014 184.495 77.1565C184.495 77.3893 184.262 77.4669 183.797 77.4669C181.605 77.4669 180.073 77.3505 179.724 77.3505C179.375 77.3505 177.765 77.4669 176.039 77.4669C175.651 77.4669 175.418 77.4281 175.418 77.1565C175.418 77.0014 175.535 76.9238 175.729 76.9238C176.039 76.9238 176.718 76.885 177.299 76.691C178.25 76.4194 178.444 75.3137 178.444 71.8221V66.1386L178.463 66.1192Z" fill="url(#paint9_linear_427_23205)"/>
<path d="M279.932 48.833H211.696" stroke="url(#paint10_linear_427_23205)" stroke-width="0.59" stroke-miterlimit="10"/>
<path d="M279.932 77.4702H211.696" stroke="url(#paint11_linear_427_23205)" stroke-width="0.59" stroke-miterlimit="10"/>
<path d="M213.871 65.9256C213.871 65.9256 214.787 66.8937 216.172 66.8937C217.14 66.8937 217.931 66.3212 217.931 65.3634C217.931 63.1461 213.528 63.7083 213.528 60.9809C213.528 59.7109 214.641 58.6074 216.276 58.6074C217.806 58.6074 218.628 59.461 218.628 59.461L218.202 60.1897C218.202 60.1897 217.421 59.4402 216.276 59.4402C215.131 59.4402 214.423 60.1793 214.423 60.9601C214.423 63.0524 218.826 62.4487 218.826 65.3426C218.826 66.6543 217.806 67.7265 216.161 67.7265C214.36 67.7265 213.371 66.6022 213.371 66.6022L213.882 65.936L213.871 65.9256Z" fill="#C7C7C7"/>
<path d="M227.092 58.6074C229.194 58.6074 230.267 59.7525 230.267 59.7525L229.798 60.3875C229.798 60.3875 228.768 59.409 227.112 59.409C225.041 59.409 223.563 61.0121 223.563 63.0941C223.563 65.1761 225.041 66.9145 227.133 66.9145C228.913 66.9145 229.996 65.7382 229.996 65.7382L230.496 66.3524C230.496 66.3524 229.288 67.7161 227.123 67.7161C224.52 67.7161 222.657 65.6757 222.657 63.1045C222.657 60.5333 224.562 58.6074 227.081 58.6074H227.092Z" fill="#C7C7C7"/>
<path d="M234.889 58.7534H235.753V62.7612H240.864V58.7534H241.728V67.5602H240.864V63.542H235.753V67.5602H234.889V58.7534Z" fill="#C7C7C7"/>
<path d="M250.67 58.6074C253.169 58.6074 255.157 60.5749 255.157 63.1045C255.157 65.6341 253.169 67.7161 250.67 67.7161C248.172 67.7161 246.183 65.6861 246.183 63.1045C246.183 60.5228 248.172 58.6074 250.67 58.6074ZM250.67 66.9145C252.648 66.9145 254.251 65.2593 254.251 63.1045C254.251 60.9496 252.648 59.409 250.67 59.409C248.692 59.409 247.089 61.0017 247.089 63.1045C247.089 65.2073 248.682 66.9145 250.67 66.9145Z" fill="#C7C7C7"/>
<path d="M263.506 58.6074C266.004 58.6074 267.992 60.5749 267.992 63.1045C267.992 65.6341 266.004 67.7161 263.506 67.7161C261.007 67.7161 259.019 65.6861 259.019 63.1045C259.019 60.5228 261.007 58.6074 263.506 58.6074ZM263.506 66.9145C265.483 66.9145 267.087 65.2593 267.087 63.1045C267.087 60.9496 265.483 59.409 263.506 59.409C261.528 59.409 259.925 61.0017 259.925 63.1045C259.925 65.2073 261.517 66.9145 263.506 66.9145Z" fill="#C7C7C7"/>
<path d="M272.448 58.7534H273.312V66.7899H277.392V67.5706H272.437V58.7638L272.448 58.7534Z" fill="#C7C7C7"/>
<path d="M4.75251 46.8291C4.75251 46.8291 0.959782 46.1579 0.795898 42.3569C0.795898 42.3569 4.65106 42.6145 4.75251 46.8291Z" fill="url(#paint12_linear_427_23205)"/>
<path d="M5.9154 54.1735C5.9154 54.1735 0.569689 53.635 0 48.3589C0 48.3589 5.38473 48.3277 5.9154 54.1735Z" fill="url(#paint13_linear_427_23205)"/>
<path d="M8.04595 60.8542C8.04595 60.8542 2.21639 61.7751 0.281006 56.3507C0.281006 56.3507 6.00912 54.8132 8.04595 60.8542Z" fill="url(#paint14_linear_427_23205)"/>
<path d="M11.8932 67.552C11.8932 67.552 5.8217 70.3852 2.17725 65.1559C2.17725 65.1559 7.96779 61.6905 11.8932 67.552Z" fill="url(#paint15_linear_427_23205)"/>
<path d="M16.0372 71.6331C16.0372 71.6331 10.9099 76.0975 6.03247 72.1326C6.03247 72.1326 10.7227 67.1453 16.0372 71.6331Z" fill="url(#paint16_linear_427_23205)"/>
<path d="M23.7007 76.4574C23.7007 76.4574 18.714 82.1471 12.7986 78.5959C12.7986 78.5959 17.2234 72.3988 23.7007 76.4574Z" fill="url(#paint17_linear_427_23205)"/>
<path d="M4.75256 44.6128C4.75256 44.6128 4.73696 40.5777 8.23313 39.1494C8.23313 39.1494 8.63113 43.0987 4.75256 44.6128Z" fill="url(#paint18_linear_427_23205)"/>
<path d="M5.15845 50.1539C5.15845 50.1539 5.14284 45.4163 9.24773 43.7305C9.24773 43.7305 9.71596 48.3744 5.15845 50.1539Z" fill="url(#paint19_linear_427_23205)"/>
<path d="M6.40723 56.5547C6.40723 56.5547 6.38382 50.2639 11.831 48.0317C11.831 48.0317 12.4553 54.1898 6.40723 56.5547Z" fill="url(#paint20_linear_427_23205)"/>
<path d="M9.66122 64.1169C9.66122 64.1169 7.93654 58.1228 12.5721 54.353C12.5721 54.353 14.8431 60.0506 9.66122 64.1169Z" fill="url(#paint21_linear_427_23205)"/>
<path d="M13.3839 69.0658C13.3839 69.0658 10.754 63.4619 14.7496 58.9507C14.7496 58.9507 17.8712 64.1643 13.3839 69.0658Z" fill="url(#paint22_linear_427_23205)"/>
<path d="M19.0105 74.1543C19.0105 74.1543 14.7573 67.9494 18.7452 61.6821C18.7452 61.6821 23.5212 67.3094 19.0105 74.1543Z" fill="url(#paint23_linear_427_23205)"/>
<path d="M26.4555 77.4873C26.4555 77.4873 20.9068 72.5546 23.3651 65.4834C23.3651 65.4834 29.2883 69.7214 26.4555 77.4873Z" fill="url(#paint24_linear_427_23205)"/>
<path d="M4.36237 40.8506C4.36237 40.8506 2.6455 37.2682 5.19739 34.3569C5.19739 34.3569 7.21862 37.6896 4.36237 40.8506Z" fill="url(#paint25_linear_427_23205)"/>
<path d="M30.3105 78.5947C30.0452 78.5713 3.59756 75.4961 4.20627 40.5459H4.86961C4.69792 50.4737 6.73475 64.0308 17.4106 72.2883C23.7864 77.221 30.3105 77.9235 30.373 77.9313L30.3027 78.5947H30.3105Z" fill="url(#paint26_linear_427_23205)"/>
<path d="M83.3385 46.8291C83.3385 46.8291 87.1312 46.1579 87.2951 42.3569C87.2951 42.3569 83.44 42.6145 83.3385 46.8291Z" fill="url(#paint27_linear_427_23205)"/>
<path d="M82.1835 54.173C82.1835 54.173 87.5292 53.6345 88.0989 48.3584C88.0989 48.3584 82.7141 48.3272 82.1835 54.173Z" fill="url(#paint28_linear_427_23205)"/>
<path d="M80.045 60.8542C80.045 60.8542 85.8746 61.7751 87.81 56.3507C87.81 56.3507 82.0819 54.8132 80.045 60.8542Z" fill="url(#paint29_linear_427_23205)"/>
<path d="M76.2059 67.552C76.2059 67.552 82.2774 70.3852 85.9219 65.1559C85.9219 65.1559 80.1313 61.6905 76.2059 67.552Z" fill="url(#paint30_linear_427_23205)"/>
<path d="M72.0618 71.6331C72.0618 71.6331 77.189 76.0975 82.0664 72.1326C82.0664 72.1326 77.3763 67.1453 72.0618 71.6331Z" fill="url(#paint31_linear_427_23205)"/>
<path d="M64.3984 76.4574C64.3984 76.4574 69.3852 82.1471 75.3006 78.5959C75.3006 78.5959 70.8757 72.3988 64.3984 76.4574Z" fill="url(#paint32_linear_427_23205)"/>
<path d="M83.3387 44.6128C83.3387 44.6128 83.3543 40.5777 79.8581 39.1494C79.8581 39.1494 79.4601 43.0987 83.3387 44.6128Z" fill="url(#paint33_linear_427_23205)"/>
<path d="M82.9404 50.1539C82.9404 50.1539 82.956 45.4163 78.8511 43.7305C78.8511 43.7305 78.3829 48.3744 82.9404 50.1539Z" fill="url(#paint34_linear_427_23205)"/>
<path d="M81.6919 56.5547C81.6919 56.5547 81.7153 50.2639 76.2682 48.0317C76.2682 48.0317 75.6438 54.1898 81.6919 56.5547Z" fill="url(#paint35_linear_427_23205)"/>
<path d="M78.4375 64.1169C78.4375 64.1169 80.1622 58.1228 75.5266 54.353C75.5266 54.353 73.2556 60.0506 78.4375 64.1169Z" fill="url(#paint36_linear_427_23205)"/>
<path d="M74.7151 69.0658C74.7151 69.0658 77.345 63.4619 73.3494 58.9507C73.3494 58.9507 70.2278 64.1643 74.7151 69.0658Z" fill="url(#paint37_linear_427_23205)"/>
<path d="M69.0883 74.1543C69.0883 74.1543 73.3415 67.9494 69.3537 61.6821C69.3537 61.6821 64.5777 67.3094 69.0883 74.1543Z" fill="url(#paint38_linear_427_23205)"/>
<path d="M61.6353 77.4873C61.6353 77.4873 67.1839 72.5546 64.7257 65.4834C64.7257 65.4834 58.8025 69.7214 61.6353 77.4873Z" fill="url(#paint39_linear_427_23205)"/>
<path d="M83.7366 40.8506C83.7366 40.8506 85.4534 37.2682 82.9015 34.3569C82.9015 34.3569 80.8803 37.6896 83.7366 40.8506Z" fill="url(#paint40_linear_427_23205)"/>
<path d="M57.7808 78.5952L57.7106 77.9318C57.9681 77.9084 83.8148 74.8801 83.2139 40.562H83.8773C84.0489 50.6225 81.9731 64.3903 71.071 72.8196C64.5468 77.8615 57.8354 78.5952 57.773 78.5952H57.7808Z" fill="url(#paint41_linear_427_23205)"/>
<path d="M74.5513 15.8432L43.7881 0.787598L12.3771 15.8432C9.10726 70.8286 43.7959 79.9915 43.7959 79.9915C43.7959 79.9915 77.829 70.8286 74.5591 15.8432H74.5513ZM43.7647 76.4637C43.7647 76.4637 12.1664 68.1125 15.1475 18.0286L43.7647 4.3154L71.7887 18.0286C74.7698 68.1125 43.7647 76.4637 43.7647 76.4637Z" fill="url(#paint42_linear_427_23205)"/>
<path d="M74.5668 15.2039L43.6475 0L12.0648 15.2039C8.77156 70.7434 43.6475 80 43.6475 80C43.6475 80 77.8601 70.7434 74.5668 15.2039ZM43.6319 78.4702C43.6319 78.4702 9.93435 69.5649 13.1106 16.1561L43.6397 1.52976L73.521 16.1561C76.6973 69.5727 43.6397 78.4702 43.6397 78.4702H43.6319Z" fill="url(#paint43_linear_427_23205)"/>
<path style="mix-blend-mode:multiply" d="M74.5668 15.2039L43.6475 0L12.0648 15.2039C8.77156 70.7434 43.6475 80 43.6475 80C43.6475 80 77.8601 70.7434 74.5668 15.2039ZM43.6319 78.4702C43.6319 78.4702 9.93435 69.5649 13.1106 16.1561L43.6397 1.52976L73.521 16.1561C76.6973 69.5727 43.6397 78.4702 43.6397 78.4702H43.6319Z" fill="url(#paint44_linear_427_23205)"/>
<path d="M43.593 73.4829L43.4448 73.4439C43.1482 73.3658 36.031 71.4068 29.1713 63.758C17.7541 51.0283 16.2792 32.7102 17.0596 19.5824L17.083 19.2468L43.593 6.47803L69.5646 19.2546L69.588 19.5902C70.3684 32.718 68.9403 51.0361 57.7494 63.758C51.0224 71.4068 44.0379 73.3658 43.7413 73.4439L43.593 73.4829ZM18.1755 19.9883C17.4576 32.8507 18.9481 50.6146 29.9673 62.9385C36.07 69.7678 42.5317 71.9688 43.5852 72.2888C44.631 71.961 50.96 69.76 56.93 62.9385C67.7307 50.6146 69.1744 32.8429 68.4565 19.9805L43.5852 7.75022L18.1755 19.9883Z" fill="url(#paint45_linear_427_23205)"/>
<path d="M26.3073 36.6828C24.4968 40.0232 23.1077 43.512 22.2337 47.1647C21.703 45.5413 21.2192 43.8164 20.8055 41.9745C21.0475 41.5374 21.2972 41.1003 21.5469 40.6632C23.0999 38.7198 24.4188 36.5969 26.2137 34.8252C26.6143 35.4444 26.6455 36.0636 26.3073 36.6828Z" fill="url(#paint46_linear_427_23205)"/>
<path d="M27.7433 28.2227C26.5102 29.4168 24.9026 30.1192 23.7554 31.3992C22.1478 32.5309 20.907 34.0061 19.7208 35.5358C19.6271 34.7241 19.5413 33.8968 19.4711 33.0539C21.7732 30.8139 24.4968 29.1592 27.7433 28.2227Z" fill="url(#paint47_linear_427_23205)"/>
<path d="M67.387 32.9676C67.3245 33.8261 67.2387 34.6613 67.145 35.473C64.9287 32.6008 62.291 30.1578 59.0211 28.2847C61.7603 28.6359 63.8362 30.2593 66.0135 31.6876C66.4895 32.1013 66.9499 32.5227 67.387 32.9676Z" fill="url(#paint48_linear_427_23205)"/>
<path d="M67.5904 23.8516C67.0753 22.7043 66.2871 21.7053 65.1165 20.878C63.6338 19.559 61.8466 19.4653 60.0127 19.676C57.2579 19.996 54.6748 20.917 51.8654 22.2282C53.3247 20.5814 54.8855 19.7307 56.6336 19.2077C58.3817 18.6926 60.1844 18.4507 61.9949 18.3102H62.0574L54.2378 14.4624C53.1296 14.6029 52.0527 15.0399 50.9913 15.5941C48.3692 16.9833 46.5821 19.239 44.9979 21.6038C45.3179 20.199 45.8875 18.8409 46.5977 17.5531C47.7527 15.438 49.2667 13.9004 51.1552 12.9482L47.0659 10.9346C46.4182 11.4575 45.8095 12.1053 45.2554 12.878C45.1852 12.9951 45.1149 13.1199 45.0525 13.2526C44.4204 14.6341 43.6322 15.9453 43.4449 17.2565C42.8518 14.9073 41.8997 12.6751 40.019 11.0282L35.8985 13.0185C37.2173 13.7209 38.3801 14.7277 39.3868 16.0546C40.6511 17.7326 41.3066 19.6526 41.9153 21.6116C38.8952 16.9677 35.758 14.9697 32.7613 14.5248L24.9261 18.3024C25.925 18.3258 26.8927 18.5131 27.8682 18.6614C30.6464 19.0751 33.1515 20.0741 35.2819 22.4468C33.7836 21.6507 32.4959 21.0731 31.1459 20.6282C29.7489 20.1677 28.313 19.8634 26.8537 19.6604C23.6853 19.2155 20.9383 20.4721 19.2838 23.079C19.2136 24.8429 19.198 26.5365 19.2292 28.1755C19.4399 28.0741 19.635 27.8868 19.8301 27.7697C20.4934 27.3716 22.1323 26.0604 22.2259 26.0214C25.3007 24.5775 29.2963 23.2741 32.9408 25.0458C30.4123 25.6468 30.0689 26.1697 30.6932 28.5658C30.8805 29.276 30.6854 29.7912 30.2328 30.2985C28.8281 31.9063 28.4925 33.8341 28.5705 35.879C29.1168 37.5648 30.3967 38.6341 31.7936 39.5707C32.4803 40.0234 32.8705 40.5307 32.535 41.397C32.3711 41.8107 32.2852 42.4194 32.7379 42.5912C33.5183 42.8955 33.1359 43.3014 32.9876 43.7151C32.613 44.7765 32.3867 45.8224 33.2217 46.7746C33.9319 47.5863 34.564 48.4604 35.0712 49.4126C35.4692 50.1541 36.0858 50.4897 36.9052 50.3024C38.9966 49.8185 40.9242 49.0146 42.3133 47.2741C43.1718 46.2048 43.1405 45.4243 42.1885 44.4175C41.689 43.879 41.0257 43.5121 40.5418 42.958C40.3467 42.7473 40.0892 42.5131 40.2219 42.1931C40.3623 41.8731 40.7135 41.9043 40.9945 41.8965C42.2197 41.8653 43.4449 41.8419 44.6701 41.8965C45.3647 41.9277 46.4338 41.4985 46.6601 42.2555C46.8864 43.0282 45.8485 43.4653 45.232 43.918C43.6556 45.0653 43.5151 46.3219 44.8808 47.7112C45.8251 48.6634 47.0035 49.2721 48.2443 49.7794C50.7806 50.8097 51.124 50.7004 52.4429 48.3824C52.6146 48.0858 52.8097 47.8048 53.036 47.5394C54.5812 45.7053 54.6358 44.8468 53.3559 42.6926C53.2623 42.599 53.1374 42.5287 53.0672 42.4351C52.8097 42.0682 53.1608 42.4351 53.1452 42.357C53.5432 42.5131 53.8944 43.036 54.3939 42.5365C53.6447 40.398 55.2757 39.5316 56.5321 38.3765C58.53 36.5424 58.9436 34.6146 58.0305 32.4058C57.7262 31.6721 57.2579 31.0399 56.7429 30.4468C56.1497 29.7443 55.9859 29.0575 56.3136 28.1443C56.8365 26.6536 56.5009 26.037 55.0806 25.3346C54.6592 25.1238 54.2222 25.0536 53.8242 25.0224C54.8153 24.999 55.9 24.7258 57.0004 24.8038C57.5389 24.8273 58.0695 24.8194 58.608 24.8194C59.3026 24.7648 59.9659 24.9209 60.6448 25.0068C62.4163 25.2175 64.1254 25.5999 65.7096 26.4585C66.4588 26.8721 66.9817 27.317 67.6216 27.7385C67.6372 26.4819 67.6294 25.1863 67.5904 23.8516ZM40.5184 34.279C40.3389 34.7238 40.0814 35.1375 39.8629 35.5668C39.6834 34.599 39.1371 34.396 38.2865 34.318C36.6711 34.1775 35.0634 33.9121 33.9553 32.5229C33.4324 31.8594 33.2685 31.2741 34.4313 31.2351C35.9375 31.1804 37.4515 30.9853 38.9498 31.3443C41.0179 31.836 41.2988 32.359 40.5184 34.279ZM53.0438 32.3746C51.959 33.9043 50.289 34.1619 48.6267 34.318C47.7839 34.396 47.2298 34.5833 47.3859 35.8868C46.4104 34.5521 45.5988 33.4048 46.1451 32.3277C46.6991 31.2273 48.1273 31.2038 49.3135 31.1804C50.3904 31.1492 51.4674 31.196 52.5521 31.2429C53.4184 31.2819 53.5354 31.6955 53.0438 32.3746Z" fill="url(#paint49_linear_427_23205)"/>
<path d="M41.5015 61.5188C41.4312 64.3285 41.4312 67.1461 41.439 69.9559C39.8002 69.2378 37.4278 67.9734 34.8291 65.9051C34.673 65.4134 34.6574 64.8905 34.5091 64.4066C33.518 61.2924 32.4801 58.1939 32.2694 54.8924C32.1835 53.589 32.1835 52.309 32.4723 50.748C34.2048 53.2612 35.8592 55.4856 38.1536 57.1324C38.6296 57.4759 39.0744 57.9285 39.6051 58.1159C41.3064 58.6934 41.5405 59.8798 41.5015 61.5188Z" fill="url(#paint50_linear_427_23205)"/>
<path d="M54.3628 56.9686C53.8633 60.4262 52.7396 63.6574 51.2802 66.7481C49.1575 68.3247 47.2456 69.3394 45.8721 69.9638C45.8252 69.9794 45.7706 70.0028 45.7238 70.0262C45.4116 70.1667 45.1229 70.2838 44.881 70.3774C44.8966 69.1833 44.92 68.0047 44.8966 66.8184C44.8575 65.0545 44.8732 63.2984 44.8966 61.5345C44.9122 60.9101 44.6312 59.115 46.8398 58.514C47.1441 58.514 52.5679 53.8701 54.2145 50.8574C55.1432 52.8711 54.6593 54.955 54.3628 56.9686Z" fill="url(#paint51_linear_427_23205)"/>
<path d="M48.7514 50.7707C45.1928 48.9834 41.5718 48.9132 38.0132 50.8956C37.8961 50.9424 35.5471 52.6361 37.2562 54.5015C38.0132 55.3366 38.8794 56.039 39.9954 56.4605C40.0422 55.961 40.089 55.5005 40.1749 54.5405C40.729 56.1015 41.5406 56.5854 42.7268 56.8351C42.8517 56.8741 42.9375 56.8351 43.0311 56.8351C44.67 56.8273 45.8796 56.398 46.5273 54.6576C46.6678 55.399 46.7536 56.1015 46.8083 56.5463C47.7681 56.1561 48.5563 55.6019 49.2587 54.9229C50.9756 53.2761 50.8741 51.84 48.7514 50.7707Z" fill="url(#paint52_linear_427_23205)"/>
<path d="M32.7925 64.1479C30.5918 62.103 28.3364 59.465 26.3152 56.0933C26.4869 51.5196 27.3453 47.0552 28.9061 42.7001C29.2573 42.0289 29.6163 41.3498 30.0143 40.585C30.8415 41.3576 30.8649 42.1225 30.5371 43.0825C29.0466 47.3908 28.6174 51.8474 28.9061 56.382C28.9295 56.7645 28.8827 57.1781 29.187 57.4903C31.021 59.3869 31.9106 61.7674 32.7925 64.1479Z" fill="url(#paint53_linear_427_23205)"/>
<path d="M66.084 41.9821C65.6782 43.8397 65.2022 45.5802 64.6715 47.2114C64.0628 44.7295 63.2512 42.2865 62.182 39.8982C61.9245 39.3285 61.6045 38.79 61.3158 38.2358C61.0348 37.6661 60.8241 37.0573 60.473 36.5421C60.0515 35.91 60.0984 35.3714 60.6446 34.7002C62.6737 37.0182 64.5388 39.4221 66.084 41.9821Z" fill="url(#paint54_linear_427_23205)"/>
<path d="M58.4518 55.8045C58.6547 53.4474 58.5845 51.1215 58.0694 48.8113C57.9289 46.6728 57.3983 44.6357 56.5866 42.661C56.4774 41.8962 56.6413 41.2093 57.3046 40.5771C59.0995 43.8474 59.8799 47.383 60.6291 50.9342C60.7696 52.4562 60.9022 53.9781 61.0427 55.5001C59.0683 58.9889 56.8442 61.7206 54.6669 63.8513C55.3224 61.8845 56.1808 59.9957 57.4841 58.2942C58.085 57.5137 58.3738 56.7645 58.4518 55.8045Z" fill="url(#paint55_linear_427_23205)"/>
<path d="M3.80044 29.1431C5.02017 29.1431 6.00896 28.1542 6.00896 26.9344C6.00896 25.7145 5.02017 24.7256 3.80044 24.7256C2.58071 24.7256 1.59192 25.7145 1.59192 26.9344C1.59192 28.1542 2.58071 29.1431 3.80044 29.1431Z" fill="url(#paint56_linear_427_23205)"/>
<path d="M3.80042 18.6227C4.59777 18.6227 5.24416 17.9762 5.24416 17.1788C5.24416 16.3813 4.59777 15.7349 3.80042 15.7349C3.00307 15.7349 2.35669 16.3813 2.35669 17.1788C2.35669 17.9762 3.00307 18.6227 3.80042 18.6227Z" fill="url(#paint57_linear_427_23205)"/>
<path d="M82.9408 29.1431C84.1606 29.1431 85.1493 28.1542 85.1493 26.9344C85.1493 25.7145 84.1606 24.7256 82.9408 24.7256C81.7211 24.7256 80.7323 25.7145 80.7323 26.9344C80.7323 28.1542 81.7211 29.1431 82.9408 29.1431Z" fill="url(#paint58_linear_427_23205)"/>
<path d="M82.9407 18.6227C83.738 18.6227 84.3844 17.9762 84.3844 17.1788C84.3844 16.3813 83.738 15.7349 82.9407 15.7349C82.1433 15.7349 81.4969 16.3813 81.4969 17.1788C81.4969 17.9762 82.1433 18.6227 82.9407 18.6227Z" fill="url(#paint59_linear_427_23205)"/>
<defs>
<linearGradient id="paint0_linear_427_23205" x1="115.307" y1="34.2799" x2="115.307" y2="4.16406" gradientUnits="userSpaceOnUse">
<stop stop-color="#B8873D"/>
<stop offset="0.47" stop-color="#F5E482"/>
<stop offset="1" stop-color="#996E34"/>
</linearGradient>
<linearGradient id="paint1_linear_427_23205" x1="149.198" y1="34.2799" x2="149.198" y2="4.16406" gradientUnits="userSpaceOnUse">
<stop stop-color="#B8873D"/>
<stop offset="0.47" stop-color="#F5E482"/>
<stop offset="1" stop-color="#996E34"/>
</linearGradient>
<linearGradient id="paint2_linear_427_23205" x1="178.808" y1="33.8533" x2="178.808" y2="4.66895" gradientUnits="userSpaceOnUse">
<stop stop-color="#B8873D"/>
<stop offset="0.47" stop-color="#F5E482"/>
<stop offset="1" stop-color="#996E34"/>
</linearGradient>
<linearGradient id="paint3_linear_427_23205" x1="206.593" y1="34.0667" x2="206.593" y2="4.66309" gradientUnits="userSpaceOnUse">
<stop stop-color="#B8873D"/>
<stop offset="0.47" stop-color="#F5E482"/>
<stop offset="1" stop-color="#996E34"/>
</linearGradient>
<linearGradient id="paint4_linear_427_23205" x1="235.089" y1="33.8533" x2="235.089" y2="4.3584" gradientUnits="userSpaceOnUse">
<stop stop-color="#B8873D"/>
<stop offset="0.47" stop-color="#F5E482"/>
<stop offset="1" stop-color="#996E34"/>
</linearGradient>
<linearGradient id="paint5_linear_427_23205" x1="264.484" y1="34.0082" x2="264.484" y2="4.16406" gradientUnits="userSpaceOnUse">
<stop stop-color="#B8873D"/>
<stop offset="0.47" stop-color="#F5E482"/>
<stop offset="1" stop-color="#996E34"/>
</linearGradient>
<linearGradient id="paint6_linear_427_23205" x1="112.198" y1="77.5644" x2="112.198" y2="48.3901" gradientUnits="userSpaceOnUse">
<stop stop-color="#B8873D"/>
<stop offset="0.47" stop-color="#F5E482"/>
<stop offset="1" stop-color="#996E34"/>
</linearGradient>
<linearGradient id="paint7_linear_427_23205" x1="130.717" y1="77.4481" x2="130.717" y2="48.3901" gradientUnits="userSpaceOnUse">
<stop stop-color="#B8873D"/>
<stop offset="0.47" stop-color="#F5E482"/>
<stop offset="1" stop-color="#996E34"/>
</linearGradient>
<linearGradient id="paint8_linear_427_23205" x1="155.723" y1="77.9907" x2="155.723" y2="47.8853" gradientUnits="userSpaceOnUse">
<stop stop-color="#B8873D"/>
<stop offset="0.47" stop-color="#F5E482"/>
<stop offset="1" stop-color="#996E34"/>
</linearGradient>
<linearGradient id="paint9_linear_427_23205" x1="190.876" y1="77.7191" x2="190.876" y2="47.8853" gradientUnits="userSpaceOnUse">
<stop stop-color="#B8873D"/>
<stop offset="0.47" stop-color="#F5E482"/>
<stop offset="1" stop-color="#996E34"/>
</linearGradient>
<linearGradient id="paint10_linear_427_23205" x1="nan" y1="nan" x2="nan" y2="nan" gradientUnits="userSpaceOnUse">
<stop stop-color="#B8873D"/>
<stop offset="0.47" stop-color="#F5E482"/>
<stop offset="1" stop-color="#996E34"/>
</linearGradient>
<linearGradient id="paint11_linear_427_23205" x1="nan" y1="nan" x2="nan" y2="nan" gradientUnits="userSpaceOnUse">
<stop stop-color="#B8873D"/>
<stop offset="0.47" stop-color="#F5E482"/>
<stop offset="1" stop-color="#996E34"/>
</linearGradient>
<linearGradient id="paint12_linear_427_23205" x1="2.77811" y1="46.8291" x2="2.77811" y2="42.3569" gradientUnits="userSpaceOnUse">
<stop stop-color="#B8873D"/>
<stop offset="0.24" stop-color="#BB893D"/>
<stop offset="0.4" stop-color="#DCBD64"/>
<stop offset="0.53" stop-color="#F5E482"/>
<stop offset="0.77" stop-color="#F5E369"/>
<stop offset="0.81" stop-color="#EDD964"/>
<stop offset="0.86" stop-color="#D9C059"/>
<stop offset="0.94" stop-color="#B99746"/>
<stop offset="1" stop-color="#996E34"/>
</linearGradient>
<linearGradient id="paint13_linear_427_23205" x1="2.9577" y1="54.1735" x2="2.9577" y2="48.3589" gradientUnits="userSpaceOnUse">
<stop stop-color="#B8873D"/>
<stop offset="0.24" stop-color="#BB893D"/>
<stop offset="0.4" stop-color="#DCBD64"/>
<stop offset="0.53" stop-color="#F5E482"/>
<stop offset="0.77" stop-color="#F5E369"/>
<stop offset="0.81" stop-color="#EDD964"/>
<stop offset="0.86" stop-color="#D9C059"/>
<stop offset="0.94" stop-color="#B99746"/>
<stop offset="1" stop-color="#996E34"/>
</linearGradient>
<linearGradient id="paint14_linear_427_23205" x1="4.16738" y1="60.9166" x2="4.16738" y2="56.179" gradientUnits="userSpaceOnUse">
<stop stop-color="#B8873D"/>
<stop offset="0.24" stop-color="#BB893D"/>
<stop offset="0.4" stop-color="#DCBD64"/>
<stop offset="0.53" stop-color="#F5E482"/>
<stop offset="0.77" stop-color="#F5E369"/>
<stop offset="0.81" stop-color="#EDD964"/>
<stop offset="0.86" stop-color="#D9C059"/>
<stop offset="0.94" stop-color="#B99746"/>
<stop offset="1" stop-color="#996E34"/>
</linearGradient>
<linearGradient id="paint15_linear_427_23205" x1="7.03912" y1="68.3169" x2="7.03912" y2="64.1335" gradientUnits="userSpaceOnUse">
<stop stop-color="#B8873D"/>
<stop offset="0.24" stop-color="#BB893D"/>
<stop offset="0.4" stop-color="#DCBD64"/>
<stop offset="0.53" stop-color="#F5E482"/>
<stop offset="0.77" stop-color="#F5E369"/>
<stop offset="0.81" stop-color="#EDD964"/>
<stop offset="0.86" stop-color="#D9C059"/>
<stop offset="0.94" stop-color="#B99746"/>
<stop offset="1" stop-color="#996E34"/>
</linearGradient>
<linearGradient id="paint16_linear_427_23205" x1="11.0348" y1="73.7716" x2="11.0348" y2="69.7599" gradientUnits="userSpaceOnUse">
<stop stop-color="#B8873D"/>
<stop offset="0.24" stop-color="#BB893D"/>
<stop offset="0.4" stop-color="#DCBD64"/>
<stop offset="0.53" stop-color="#F5E482"/>
<stop offset="0.77" stop-color="#F5E369"/>
<stop offset="0.81" stop-color="#EDD964"/>
<stop offset="0.86" stop-color="#D9C059"/>
<stop offset="0.94" stop-color="#B99746"/>
<stop offset="1" stop-color="#996E34"/>
</linearGradient>
<linearGradient id="paint17_linear_427_23205" x1="18.2457" y1="79.7666" x2="18.2457" y2="75.0837" gradientUnits="userSpaceOnUse">
<stop stop-color="#B8873D"/>
<stop offset="0.24" stop-color="#BB893D"/>
<stop offset="0.4" stop-color="#DCBD64"/>
<stop offset="0.53" stop-color="#F5E482"/>
<stop offset="0.77" stop-color="#F5E369"/>
<stop offset="0.81" stop-color="#EDD964"/>
<stop offset="0.86" stop-color="#D9C059"/>
<stop offset="0.94" stop-color="#B99746"/>
<stop offset="1" stop-color="#996E34"/>
</linearGradient>
<linearGradient id="paint18_linear_427_23205" x1="6.50065" y1="44.6128" x2="6.50065" y2="39.1416" gradientUnits="userSpaceOnUse">
<stop stop-color="#B8873D"/>
<stop offset="0.24" stop-color="#BB893D"/>
<stop offset="0.4" stop-color="#DCBD64"/>
<stop offset="0.53" stop-color="#F5E482"/>
<stop offset="0.77" stop-color="#F5E369"/>
<stop offset="0.81" stop-color="#EDD964"/>
<stop offset="0.86" stop-color="#D9C059"/>
<stop offset="0.94" stop-color="#B99746"/>
<stop offset="1" stop-color="#996E34"/>
</linearGradient>
<linearGradient id="paint19_linear_427_23205" x1="7.20309" y1="50.1539" x2="7.20309" y2="43.7305" gradientUnits="userSpaceOnUse">
<stop stop-color="#B8873D"/>
<stop offset="0.24" stop-color="#BB893D"/>
<stop offset="0.4" stop-color="#DCBD64"/>
<stop offset="0.53" stop-color="#F5E482"/>
<stop offset="0.77" stop-color="#F5E369"/>
<stop offset="0.81" stop-color="#EDD964"/>
<stop offset="0.86" stop-color="#D9C059"/>
<stop offset="0.94" stop-color="#B99746"/>
<stop offset="1" stop-color="#996E34"/>
</linearGradient>
<linearGradient id="paint20_linear_427_23205" x1="9.12301" y1="56.5547" x2="9.12301" y2="48.0317" gradientUnits="userSpaceOnUse">
<stop stop-color="#B8873D"/>
<stop offset="0.24" stop-color="#BB893D"/>
<stop offset="0.4" stop-color="#DCBD64"/>
<stop offset="0.53" stop-color="#F5E482"/>
<stop offset="0.77" stop-color="#F5E369"/>
<stop offset="0.81" stop-color="#EDD964"/>
<stop offset="0.86" stop-color="#D9C059"/>
<stop offset="0.94" stop-color="#B99746"/>
<stop offset="1" stop-color="#996E34"/>
</linearGradient>
<linearGradient id="paint21_linear_427_23205" x1="11.2064" y1="64.1169" x2="11.2064" y2="54.353" gradientUnits="userSpaceOnUse">
<stop stop-color="#B8873D"/>
<stop offset="0.24" stop-color="#BB893D"/>
<stop offset="0.4" stop-color="#DCBD64"/>
<stop offset="0.53" stop-color="#F5E482"/>
<stop offset="0.77" stop-color="#F5E369"/>
<stop offset="0.81" stop-color="#EDD964"/>
<stop offset="0.86" stop-color="#D9C059"/>
<stop offset="0.94" stop-color="#B99746"/>
<stop offset="1" stop-color="#996E34"/>
</linearGradient>
<linearGradient id="paint22_linear_427_23205" x1="14.1721" y1="69.0658" x2="14.1721" y2="58.9585" gradientUnits="userSpaceOnUse">
<stop stop-color="#B8873D"/>
<stop offset="0.24" stop-color="#BB893D"/>
<stop offset="0.4" stop-color="#DCBD64"/>
<stop offset="0.53" stop-color="#F5E482"/>
<stop offset="0.77" stop-color="#F5E369"/>
<stop offset="0.81" stop-color="#EDD964"/>
<stop offset="0.86" stop-color="#D9C059"/>
<stop offset="0.94" stop-color="#B99746"/>
<stop offset="1" stop-color="#996E34"/>
</linearGradient>
<linearGradient id="paint23_linear_427_23205" x1="18.9871" y1="74.1543" x2="18.9871" y2="61.6821" gradientUnits="userSpaceOnUse">
<stop stop-color="#B8873D"/>
<stop offset="0.24" stop-color="#BB893D"/>
<stop offset="0.4" stop-color="#DCBD64"/>
<stop offset="0.53" stop-color="#F5E482"/>
<stop offset="0.77" stop-color="#F5E369"/>
<stop offset="0.81" stop-color="#EDD964"/>
<stop offset="0.86" stop-color="#D9C059"/>
<stop offset="0.94" stop-color="#B99746"/>
<stop offset="1" stop-color="#996E34"/>
</linearGradient>
<linearGradient id="paint24_linear_427_23205" x1="24.9883" y1="77.4873" x2="24.9883" y2="65.4834" gradientUnits="userSpaceOnUse">
<stop stop-color="#B8873D"/>
<stop offset="0.24" stop-color="#BB893D"/>
<stop offset="0.4" stop-color="#DCBD64"/>
<stop offset="0.53" stop-color="#F5E482"/>
<stop offset="0.77" stop-color="#F5E369"/>
<stop offset="0.81" stop-color="#EDD964"/>
<stop offset="0.86" stop-color="#D9C059"/>
<stop offset="0.94" stop-color="#B99746"/>
<stop offset="1" stop-color="#996E34"/>
</linearGradient>
<linearGradient id="paint25_linear_427_23205" x1="4.84621" y1="40.8506" x2="4.84621" y2="34.3569" gradientUnits="userSpaceOnUse">
<stop stop-color="#B8873D"/>
<stop offset="0.24" stop-color="#BB893D"/>
<stop offset="0.4" stop-color="#DCBD64"/>
<stop offset="0.53" stop-color="#F5E482"/>
<stop offset="0.77" stop-color="#F5E369"/>
<stop offset="0.81" stop-color="#EDD964"/>
<stop offset="0.86" stop-color="#D9C059"/>
<stop offset="0.94" stop-color="#B99746"/>
<stop offset="1" stop-color="#996E34"/>
</linearGradient>
<linearGradient id="paint26_linear_427_23205" x1="4.19847" y1="59.5742" x2="30.3808" y2="59.5742" gradientUnits="userSpaceOnUse">
<stop stop-color="#B8873D"/>
<stop offset="0.47" stop-color="#F5E482"/>
<stop offset="1" stop-color="#996E34"/>
</linearGradient>
<linearGradient id="paint27_linear_427_23205" x1="85.3207" y1="46.8291" x2="85.3207" y2="42.3569" gradientUnits="userSpaceOnUse">
<stop stop-color="#B8873D"/>
<stop offset="0.24" stop-color="#BB893D"/>
<stop offset="0.4" stop-color="#DCBD64"/>
<stop offset="0.53" stop-color="#F5E482"/>
<stop offset="0.77" stop-color="#F5E369"/>
<stop offset="0.81" stop-color="#EDD964"/>
<stop offset="0.86" stop-color="#D9C059"/>
<stop offset="0.94" stop-color="#B99746"/>
<stop offset="1" stop-color="#996E34"/>
</linearGradient>
<linearGradient id="paint28_linear_427_23205" x1="85.1412" y1="54.173" x2="85.1412" y2="48.3584" gradientUnits="userSpaceOnUse">
<stop stop-color="#B8873D"/>
<stop offset="0.24" stop-color="#BB893D"/>
<stop offset="0.4" stop-color="#DCBD64"/>
<stop offset="0.53" stop-color="#F5E482"/>
<stop offset="0.77" stop-color="#F5E369"/>
<stop offset="0.81" stop-color="#EDD964"/>
<stop offset="0.86" stop-color="#D9C059"/>
<stop offset="0.94" stop-color="#B99746"/>
<stop offset="1" stop-color="#996E34"/>
</linearGradient>
<linearGradient id="paint29_linear_427_23205" x1="83.9314" y1="60.9166" x2="83.9314" y2="56.179" gradientUnits="userSpaceOnUse">
<stop stop-color="#B8873D"/>
<stop offset="0.24" stop-color="#BB893D"/>
<stop offset="0.4" stop-color="#DCBD64"/>
<stop offset="0.53" stop-color="#F5E482"/>
<stop offset="0.77" stop-color="#F5E369"/>
<stop offset="0.81" stop-color="#EDD964"/>
<stop offset="0.86" stop-color="#D9C059"/>
<stop offset="0.94" stop-color="#B99746"/>
<stop offset="1" stop-color="#996E34"/>
</linearGradient>
<linearGradient id="paint30_linear_427_23205" x1="81.06" y1="68.3169" x2="81.06" y2="64.1335" gradientUnits="userSpaceOnUse">
<stop stop-color="#B8873D"/>
<stop offset="0.24" stop-color="#BB893D"/>
<stop offset="0.4" stop-color="#DCBD64"/>
<stop offset="0.53" stop-color="#F5E482"/>
<stop offset="0.77" stop-color="#F5E369"/>
<stop offset="0.81" stop-color="#EDD964"/>
<stop offset="0.86" stop-color="#D9C059"/>
<stop offset="0.94" stop-color="#B99746"/>
<stop offset="1" stop-color="#996E34"/>
</linearGradient>
<linearGradient id="paint31_linear_427_23205" x1="77.0641" y1="73.7716" x2="77.0641" y2="69.7599" gradientUnits="userSpaceOnUse">
<stop stop-color="#B8873D"/>
<stop offset="0.24" stop-color="#BB893D"/>
<stop offset="0.4" stop-color="#DCBD64"/>
<stop offset="0.53" stop-color="#F5E482"/>
<stop offset="0.77" stop-color="#F5E369"/>
<stop offset="0.81" stop-color="#EDD964"/>
<stop offset="0.86" stop-color="#D9C059"/>
<stop offset="0.94" stop-color="#B99746"/>
<stop offset="1" stop-color="#996E34"/>
</linearGradient>
<linearGradient id="paint32_linear_427_23205" x1="69.8534" y1="79.7666" x2="69.8534" y2="75.0837" gradientUnits="userSpaceOnUse">
<stop stop-color="#B8873D"/>
<stop offset="0.24" stop-color="#BB893D"/>
<stop offset="0.4" stop-color="#DCBD64"/>
<stop offset="0.53" stop-color="#F5E482"/>
<stop offset="0.77" stop-color="#F5E369"/>
<stop offset="0.81" stop-color="#EDD964"/>
<stop offset="0.86" stop-color="#D9C059"/>
<stop offset="0.94" stop-color="#B99746"/>
<stop offset="1" stop-color="#996E34"/>
</linearGradient>
<linearGradient id="paint33_linear_427_23205" x1="81.5984" y1="44.6128" x2="81.5984" y2="39.1416" gradientUnits="userSpaceOnUse">
<stop stop-color="#B8873D"/>
<stop offset="0.24" stop-color="#BB893D"/>
<stop offset="0.4" stop-color="#DCBD64"/>
<stop offset="0.53" stop-color="#F5E482"/>
<stop offset="0.77" stop-color="#F5E369"/>
<stop offset="0.81" stop-color="#EDD964"/>
<stop offset="0.86" stop-color="#D9C059"/>
<stop offset="0.94" stop-color="#B99746"/>
<stop offset="1" stop-color="#996E34"/>
</linearGradient>
<linearGradient id="paint34_linear_427_23205" x1="80.888" y1="50.1539" x2="80.888" y2="43.7305" gradientUnits="userSpaceOnUse">
<stop stop-color="#B8873D"/>
<stop offset="0.24" stop-color="#BB893D"/>
<stop offset="0.4" stop-color="#DCBD64"/>
<stop offset="0.53" stop-color="#F5E482"/>
<stop offset="0.77" stop-color="#F5E369"/>
<stop offset="0.81" stop-color="#EDD964"/>
<stop offset="0.86" stop-color="#D9C059"/>
<stop offset="0.94" stop-color="#B99746"/>
<stop offset="1" stop-color="#996E34"/>
</linearGradient>
<linearGradient id="paint35_linear_427_23205" x1="78.9683" y1="56.5547" x2="78.9683" y2="48.0317" gradientUnits="userSpaceOnUse">
<stop stop-color="#B8873D"/>
<stop offset="0.24" stop-color="#BB893D"/>
<stop offset="0.4" stop-color="#DCBD64"/>
<stop offset="0.53" stop-color="#F5E482"/>
<stop offset="0.77" stop-color="#F5E369"/>
<stop offset="0.81" stop-color="#EDD964"/>
<stop offset="0.86" stop-color="#D9C059"/>
<stop offset="0.94" stop-color="#B99746"/>
<stop offset="1" stop-color="#996E34"/>
</linearGradient>
<linearGradient id="paint36_linear_427_23205" x1="76.8923" y1="64.1169" x2="76.8923" y2="54.353" gradientUnits="userSpaceOnUse">
<stop stop-color="#B8873D"/>
<stop offset="0.24" stop-color="#BB893D"/>
<stop offset="0.4" stop-color="#DCBD64"/>
<stop offset="0.53" stop-color="#F5E482"/>
<stop offset="0.77" stop-color="#F5E369"/>
<stop offset="0.81" stop-color="#EDD964"/>
<stop offset="0.86" stop-color="#D9C059"/>
<stop offset="0.94" stop-color="#B99746"/>
<stop offset="1" stop-color="#996E34"/>
</linearGradient>
<linearGradient id="paint37_linear_427_23205" x1="73.9269" y1="69.0658" x2="73.9269" y2="58.9585" gradientUnits="userSpaceOnUse">
<stop stop-color="#B8873D"/>
<stop offset="0.24" stop-color="#BB893D"/>
<stop offset="0.4" stop-color="#DCBD64"/>
<stop offset="0.53" stop-color="#F5E482"/>
<stop offset="0.77" stop-color="#F5E369"/>
<stop offset="0.81" stop-color="#EDD964"/>
<stop offset="0.86" stop-color="#D9C059"/>
<stop offset="0.94" stop-color="#B99746"/>
<stop offset="1" stop-color="#996E34"/>
</linearGradient>
<linearGradient id="paint38_linear_427_23205" x1="69.104" y1="74.1543" x2="69.104" y2="61.6821" gradientUnits="userSpaceOnUse">
<stop stop-color="#B8873D"/>
<stop offset="0.24" stop-color="#BB893D"/>
<stop offset="0.4" stop-color="#DCBD64"/>
<stop offset="0.53" stop-color="#F5E482"/>
<stop offset="0.77" stop-color="#F5E369"/>
<stop offset="0.81" stop-color="#EDD964"/>
<stop offset="0.86" stop-color="#D9C059"/>
<stop offset="0.94" stop-color="#B99746"/>
<stop offset="1" stop-color="#996E34"/>
</linearGradient>
<linearGradient id="paint39_linear_427_23205" x1="63.1103" y1="77.4873" x2="63.1103" y2="65.4834" gradientUnits="userSpaceOnUse">
<stop stop-color="#B8873D"/>
<stop offset="0.24" stop-color="#BB893D"/>
<stop offset="0.4" stop-color="#DCBD64"/>
<stop offset="0.53" stop-color="#F5E482"/>
<stop offset="0.77" stop-color="#F5E369"/>
<stop offset="0.81" stop-color="#EDD964"/>
<stop offset="0.86" stop-color="#D9C059"/>
<stop offset="0.94" stop-color="#B99746"/>
<stop offset="1" stop-color="#996E34"/>
</linearGradient>
<linearGradient id="paint40_linear_427_23205" x1="83.2527" y1="40.8506" x2="83.2527" y2="34.3569" gradientUnits="userSpaceOnUse">
<stop stop-color="#B8873D"/>
<stop offset="0.24" stop-color="#BB893D"/>
<stop offset="0.4" stop-color="#DCBD64"/>
<stop offset="0.53" stop-color="#F5E482"/>
<stop offset="0.77" stop-color="#F5E369"/>
<stop offset="0.81" stop-color="#EDD964"/>
<stop offset="0.86" stop-color="#D9C059"/>
<stop offset="0.94" stop-color="#B99746"/>
<stop offset="1" stop-color="#996E34"/>
</linearGradient>
<linearGradient id="paint41_linear_427_23205" x1="57.7184" y1="59.5747" x2="83.9007" y2="59.5747" gradientUnits="userSpaceOnUse">
<stop stop-color="#B8873D"/>
<stop offset="0.47" stop-color="#F5E482"/>
<stop offset="1" stop-color="#996E34"/>
</linearGradient>
<linearGradient id="paint42_linear_427_23205" x1="12.1586" y1="40.3896" x2="74.7776" y2="40.3896" gradientUnits="userSpaceOnUse">
<stop stop-color="#B8873D"/>
<stop offset="0.47" stop-color="#F5E482"/>
<stop offset="1" stop-color="#996E34"/>
</linearGradient>
<linearGradient id="paint43_linear_427_23205" x1="21.5857" y1="68.082" x2="57.7322" y2="5.48269" gradientUnits="userSpaceOnUse">
<stop stop-color="#B8873D"/>
<stop offset="0.47" stop-color="#F5E482"/>
<stop offset="1" stop-color="#996E34"/>
</linearGradient>
<linearGradient id="paint44_linear_427_23205" x1="11.8463" y1="40" x2="74.7931" y2="40" gradientUnits="userSpaceOnUse">
<stop stop-color="#B8873D"/>
<stop offset="0.47" stop-color="#F5E482"/>
<stop offset="1" stop-color="#996E34"/>
</linearGradient>
<linearGradient id="paint45_linear_427_23205" x1="16.8801" y1="39.9766" x2="69.7597" y2="39.9766" gradientUnits="userSpaceOnUse">
<stop stop-color="#B8873D"/>
<stop offset="0.47" stop-color="#F5E482"/>
<stop offset="1" stop-color="#996E34"/>
</linearGradient>
<linearGradient id="paint46_linear_427_23205" x1="20.8055" y1="40.9989" x2="26.6819" y2="40.9989" gradientUnits="userSpaceOnUse">
<stop stop-color="#B8873D"/>
<stop offset="0.47" stop-color="#F5E482"/>
<stop offset="1" stop-color="#996E34"/>
</linearGradient>
<linearGradient id="paint47_linear_427_23205" x1="19.4711" y1="31.8831" x2="27.7433" y2="31.8831" gradientUnits="userSpaceOnUse">
<stop stop-color="#B8873D"/>
<stop offset="0.47" stop-color="#F5E482"/>
<stop offset="1" stop-color="#996E34"/>
</linearGradient>
<linearGradient id="paint48_linear_427_23205" x1="59.0211" y1="31.8827" x2="67.387" y2="31.8827" gradientUnits="userSpaceOnUse">
<stop stop-color="#B8873D"/>
<stop offset="0.47" stop-color="#F5E482"/>
<stop offset="1" stop-color="#996E34"/>
</linearGradient>
<linearGradient id="paint49_linear_427_23205" x1="19.2136" y1="30.6731" x2="67.6294" y2="30.6731" gradientUnits="userSpaceOnUse">
<stop stop-color="#B8873D"/>
<stop offset="0.47" stop-color="#F5E482"/>
<stop offset="1" stop-color="#996E34"/>
</linearGradient>
<linearGradient id="paint50_linear_427_23205" x1="32.2226" y1="60.3559" x2="41.5093" y2="60.3559" gradientUnits="userSpaceOnUse">
<stop stop-color="#B8873D"/>
<stop offset="0.47" stop-color="#F5E482"/>
<stop offset="1" stop-color="#996E34"/>
</linearGradient>
<linearGradient id="paint51_linear_427_23205" x1="44.8732" y1="60.6213" x2="54.7608" y2="60.6213" gradientUnits="userSpaceOnUse">
<stop stop-color="#B8873D"/>
<stop offset="0.47" stop-color="#F5E482"/>
<stop offset="1" stop-color="#996E34"/>
</linearGradient>
<linearGradient id="paint52_linear_427_23205" x1="36.6397" y1="53.1434" x2="50.4527" y2="53.1434" gradientUnits="userSpaceOnUse">
<stop stop-color="#B8873D"/>
<stop offset="0.47" stop-color="#F5E482"/>
<stop offset="1" stop-color="#996E34"/>
</linearGradient>
<linearGradient id="paint53_linear_427_23205" x1="26.3152" y1="52.3703" x2="32.7925" y2="52.3703" gradientUnits="userSpaceOnUse">
<stop stop-color="#B8873D"/>
<stop offset="0.47" stop-color="#F5E482"/>
<stop offset="1" stop-color="#996E34"/>
</linearGradient>
<linearGradient id="paint54_linear_427_23205" x1="60.192" y1="40.9597" x2="66.084" y2="40.9597" gradientUnits="userSpaceOnUse">
<stop stop-color="#B8873D"/>
<stop offset="0.47" stop-color="#F5E482"/>
<stop offset="1" stop-color="#996E34"/>
</linearGradient>
<linearGradient id="paint55_linear_427_23205" x1="54.6669" y1="52.2142" x2="61.0427" y2="52.2142" gradientUnits="userSpaceOnUse">
<stop stop-color="#B8873D"/>
<stop offset="0.47" stop-color="#F5E482"/>
<stop offset="1" stop-color="#996E34"/>
</linearGradient>
<linearGradient id="paint56_linear_427_23205" x1="1.98992" y1="28.1988" x2="5.60343" y2="25.6704" gradientUnits="userSpaceOnUse">
<stop stop-color="#B8873D"/>
<stop offset="0.47" stop-color="#F5E482"/>
<stop offset="1" stop-color="#996E34"/>
</linearGradient>
<linearGradient id="paint57_linear_427_23205" x1="2.62202" y1="18.0061" x2="4.979" y2="16.3517" gradientUnits="userSpaceOnUse">
<stop stop-color="#B8873D"/>
<stop offset="0.47" stop-color="#F5E482"/>
<stop offset="1" stop-color="#996E34"/>
</linearGradient>
<linearGradient id="paint58_linear_427_23205" x1="81.1381" y1="25.67" x2="84.7516" y2="28.1984" gradientUnits="userSpaceOnUse">
<stop stop-color="#B8873D"/>
<stop offset="0.47" stop-color="#F5E482"/>
<stop offset="1" stop-color="#996E34"/>
</linearGradient>
<linearGradient id="paint59_linear_427_23205" x1="84.1191" y1="18.0061" x2="81.7543" y2="16.3517" gradientUnits="userSpaceOnUse">
<stop stop-color="#B8873D"/>
<stop offset="0.47" stop-color="#F5E482"/>
<stop offset="1" stop-color="#996E34"/>
</linearGradient>
</defs>
</svg>
