<svg width="48" height="60" viewBox="0 0 48 60" fill="none" xmlns="http://www.w3.org/2000/svg">
<path d="M47.0147 11.8829L23.9494 0.591187L0.398392 11.8829C-2.05325 53.1219 23.9552 59.9941 23.9552 59.9941C23.9552 59.9941 49.4722 53.1219 47.0206 11.8829H47.0147ZM23.9318 57.3483C23.9318 57.3483 0.240409 51.0848 2.47556 13.5219L23.9318 3.23704L44.9434 13.5219C47.1785 51.0848 23.9318 57.3483 23.9318 57.3483Z" fill="url(#paint0_linear_1301_23351)"/>
<path d="M47.0265 11.4029L23.8442 0L0.164478 11.4029C-2.30472 53.0576 23.8442 60 23.8442 60C23.8442 60 49.4957 53.0576 47.0265 11.4029ZM23.8325 58.8527C23.8325 58.8527 -1.43289 52.1737 0.948535 12.1171L23.8383 1.14732L46.2425 12.1171C48.6239 52.1795 23.8383 58.8527 23.8383 58.8527H23.8325Z" fill="url(#paint1_linear_1301_23351)"/>
<path style="mix-blend-mode:multiply" d="M47.0265 11.4029L23.8442 0L0.164478 11.4029C-2.30472 53.0576 23.8442 60 23.8442 60C23.8442 60 49.4957 53.0576 47.0265 11.4029ZM23.8325 58.8527C23.8325 58.8527 -1.43289 52.1737 0.948535 12.1171L23.8383 1.14732L46.2425 12.1171C48.6239 52.1795 23.8383 58.8527 23.8383 58.8527H23.8325Z" fill="url(#paint2_linear_1301_23351)"/>
<path d="M23.8033 55.1122L23.6921 55.0829C23.4698 55.0244 18.1335 53.5551 12.9903 47.8185C4.43007 38.2712 3.3242 24.5327 3.90931 14.6868L3.92687 14.4351L23.8033 4.85852L43.276 14.441L43.2936 14.6927C43.8787 24.5385 42.8079 38.2771 34.4173 47.8185C29.3736 53.5551 24.1368 55.0244 23.9145 55.0829L23.8033 55.1122ZM4.74603 14.9912C4.20772 24.638 5.3253 37.961 13.5872 47.2039C18.1628 52.3258 23.0075 53.9766 23.7975 54.2166C24.5815 53.9707 29.3268 52.32 33.803 47.2039C41.901 37.961 42.9835 24.6322 42.4451 14.9853L23.7975 5.81267L4.74603 14.9912Z" fill="url(#paint3_linear_1301_23351)"/>
<path d="M10.8429 27.5122C9.48538 30.0176 8.44387 32.6341 7.78854 35.3737C7.39066 34.1561 7.02789 32.8624 6.71777 31.481C6.89916 31.1532 7.0864 30.8254 7.27364 30.4976C8.43802 29.04 9.42687 27.4478 10.7726 26.119C11.073 26.5834 11.0964 27.0478 10.8429 27.5122Z" fill="url(#paint4_linear_1301_23351)"/>
<path d="M11.9193 21.1669C10.9948 22.0625 9.78946 22.5893 8.92934 23.5493C7.72399 24.3981 6.79366 25.5044 5.90428 26.6517C5.83406 26.043 5.7697 25.4225 5.71704 24.7903C7.44314 23.1103 9.4852 21.8693 11.9193 21.1669Z" fill="url(#paint5_linear_1301_23351)"/>
<path d="M41.6436 24.7258C41.5967 25.3697 41.5324 25.9961 41.4622 26.6048C39.8004 24.4507 37.8227 22.6185 35.3711 21.2136C37.4249 21.477 38.9813 22.6946 40.6137 23.7658C40.9707 24.0761 41.3159 24.3922 41.6436 24.7258Z" fill="url(#paint6_linear_1301_23351)"/>
<path d="M41.7956 17.8887C41.4095 17.0282 40.8185 16.279 39.9408 15.6585C38.8291 14.6692 37.4892 14.599 36.1142 14.757C34.0487 14.997 32.1119 15.6878 30.0055 16.6712C31.0997 15.436 32.2699 14.798 33.5806 14.4058C34.8913 14.0195 36.2429 13.838 37.6003 13.7326H37.6472L31.7843 10.8468C30.9534 10.9521 30.146 11.28 29.3502 11.6956C27.3842 12.7375 26.0443 14.4292 24.8565 16.2029C25.0964 15.1492 25.5235 14.1307 26.056 13.1648C26.922 11.5785 28.0571 10.4253 29.4731 9.71117L26.407 8.20093C25.9214 8.59312 25.465 9.07898 25.0496 9.65849C24.9969 9.74629 24.9443 9.83995 24.8974 9.93946C24.4235 10.9756 23.8325 11.959 23.6921 12.9424C23.2474 11.1804 22.5336 9.50629 21.1234 8.27117L18.034 9.76385C19.0229 10.2907 19.8947 11.0458 20.6495 12.0409C21.5974 13.2995 22.0889 14.7395 22.5453 16.2087C20.2809 12.7258 17.9287 11.2273 15.6818 10.8936L9.80727 13.7268C10.5562 13.7443 11.2818 13.8848 12.0132 13.996C14.0962 14.3063 15.9744 15.0556 17.5718 16.8351C16.4483 16.238 15.4829 15.8048 14.4707 15.4712C13.4233 15.1258 12.3467 14.8975 11.2525 14.7453C8.87693 14.4117 6.81732 15.3541 5.57687 17.3092C5.52421 18.6321 5.5125 19.9024 5.53591 21.1317C5.69389 21.0556 5.84017 20.9151 5.98645 20.8273C6.4838 20.5287 7.71255 19.5453 7.78276 19.516C10.0881 18.4331 13.0839 17.4556 15.8164 18.7843C13.9206 19.2351 13.6632 19.6273 14.1313 21.4243C14.2717 21.957 14.1254 22.3434 13.7861 22.7239C12.7329 23.9297 12.4813 25.3756 12.5398 26.9092C12.9493 28.1736 13.9089 28.9756 14.9563 29.678C15.4712 30.0175 15.7638 30.398 15.5122 31.0478C15.3893 31.358 15.3249 31.8146 15.6643 31.9434C16.2494 32.1717 15.9627 32.476 15.8515 32.7863C15.5707 33.5824 15.401 34.3668 16.0271 35.0809C16.5595 35.6897 17.0335 36.3453 17.4138 37.0595C17.7122 37.6156 18.1744 37.8673 18.7888 37.7268C20.3569 37.3638 21.8022 36.7609 22.8437 35.4556C23.4873 34.6536 23.4639 34.0682 22.7501 33.3131C22.3756 32.9092 21.8782 32.6341 21.5155 32.2185C21.3692 32.0604 21.1761 31.8848 21.2756 31.6448C21.3809 31.4048 21.6442 31.4282 21.8548 31.4224C22.7735 31.399 23.6921 31.3814 24.6107 31.4224C25.1315 31.4458 25.9331 31.1239 26.1028 31.6917C26.2725 32.2712 25.4943 32.599 25.032 32.9385C23.8501 33.799 23.7448 34.7414 24.7687 35.7834C25.4767 36.4975 26.3602 36.9541 27.2906 37.3346C29.1922 38.1073 29.4497 38.0253 30.4385 36.2868C30.5672 36.0643 30.7135 35.8536 30.8832 35.6546C32.0417 34.279 32.0827 33.6351 31.1231 32.0195C31.0529 31.9492 30.9593 31.8965 30.9066 31.8263C30.7135 31.5512 30.9768 31.8263 30.9651 31.7678C31.2635 31.8848 31.5268 32.277 31.9013 31.9024C31.3396 30.2985 32.5625 29.6487 33.5045 28.7824C35.0024 27.4068 35.3125 25.9609 34.628 24.3043C34.3998 23.7541 34.0487 23.28 33.6625 22.8351C33.2178 22.3082 33.0949 21.7931 33.3407 21.1082C33.7327 19.9902 33.4811 19.5278 32.4162 19.0009C32.1002 18.8429 31.7726 18.7902 31.4742 18.7668C32.2173 18.7492 33.0306 18.5443 33.8556 18.6029C34.2593 18.6204 34.6572 18.6146 35.0609 18.6146C35.5817 18.5736 36.079 18.6907 36.5881 18.7551C37.9163 18.9131 39.1977 19.2 40.3855 19.8439C40.9472 20.1541 41.3393 20.4878 41.819 20.8039C41.8307 19.8614 41.8249 18.8897 41.7956 17.8887ZM21.4979 25.7092C21.3633 26.0429 21.1702 26.3531 21.0064 26.6751C20.8718 25.9492 20.4623 25.797 19.8245 25.7385C18.6133 25.6331 17.4079 25.4341 16.5771 24.3921C16.185 23.8946 16.0622 23.4556 16.934 23.4263C18.0633 23.3853 19.1984 23.239 20.3218 23.5082C21.8724 23.877 22.083 24.2692 21.4979 25.7092ZM30.8891 24.2809C30.0757 25.4282 28.8236 25.6214 27.5773 25.7385C26.9454 25.797 26.5299 25.9375 26.6469 26.9151C25.9156 25.9141 25.307 25.0536 25.7166 24.2458C26.132 23.4204 27.2028 23.4029 28.0922 23.3853C28.8997 23.3619 29.7071 23.397 30.5204 23.4321C31.1699 23.4614 31.2577 23.7717 30.8891 24.2809Z" fill="url(#paint7_linear_1301_23351)"/>
<path d="M22.2352 46.1385C22.1826 48.2458 22.1826 50.359 22.1884 52.4663C20.9597 51.9277 19.1809 50.9795 17.2325 49.4282C17.1154 49.0595 17.1037 48.6673 16.9926 48.3043C16.2495 45.9687 15.4713 43.6448 15.3133 41.1687C15.2489 40.1912 15.2489 39.2312 15.4654 38.0604C16.7644 39.9453 18.0048 41.6136 19.7251 42.8487C20.082 43.1063 20.4155 43.4458 20.8134 43.5863C22.0889 44.0195 22.2645 44.9092 22.2352 46.1385Z" fill="url(#paint8_linear_1301_23351)"/>
<path d="M31.8777 42.7257C31.5033 45.3189 30.6607 47.7423 29.5665 50.0604C27.975 51.2428 26.5415 52.0038 25.5117 52.4721C25.4766 52.4838 25.4356 52.5014 25.4005 52.5189C25.1665 52.6243 24.95 52.7121 24.7686 52.7823C24.7803 51.8867 24.7978 51.0028 24.7803 50.1131C24.751 48.7901 24.7627 47.4731 24.7803 46.1501C24.792 45.6818 24.5813 44.3355 26.2372 43.8848C26.4654 43.8848 30.532 40.4018 31.7666 38.1423C32.4629 39.6526 32.1001 41.2155 31.8777 42.7257Z" fill="url(#paint9_linear_1301_23351)"/>
<path d="M27.6709 38.0782C25.0028 36.7377 22.2879 36.685 19.6197 38.1718C19.5319 38.2069 17.7707 39.4772 19.0522 40.8762C19.6197 41.5026 20.2692 42.0294 21.1059 42.3455C21.141 41.9708 21.1761 41.6255 21.2405 40.9055C21.6559 42.0762 22.2644 42.4391 23.1538 42.6265C23.2474 42.6557 23.3118 42.6265 23.382 42.6265C24.6108 42.6206 25.5177 42.2987 26.0033 40.9933C26.1087 41.5494 26.173 42.0762 26.214 42.4099C26.9337 42.1172 27.5247 41.7016 28.0513 41.1923C29.3385 39.9572 29.2625 38.8801 27.6709 38.0782Z" fill="url(#paint10_linear_1301_23351)"/>
<path d="M15.7054 48.1112C14.0553 46.5775 12.3643 44.599 10.8489 42.0702C10.9776 38.6399 11.6212 35.2916 12.7915 32.0253C13.0548 31.5219 13.3239 31.0126 13.6223 30.439C14.2426 31.0185 14.2601 31.5921 14.0144 32.3121C12.8968 35.5434 12.575 38.8858 12.7915 42.2868C12.809 42.5736 12.7739 42.8838 13.0021 43.118C14.3771 44.5404 15.0442 46.3258 15.7054 48.1112Z" fill="url(#paint11_linear_1301_23351)"/>
<path d="M40.6662 31.4869C40.362 32.88 40.0051 34.1854 39.6072 35.4088C39.1508 33.5473 38.5423 31.7151 37.7406 29.9239C37.5476 29.4966 37.3077 29.0927 37.0912 28.6771C36.8805 28.2498 36.7225 27.7932 36.4592 27.4069C36.1433 26.9327 36.1784 26.5288 36.588 26.0254C38.1093 27.7639 39.5077 29.5669 40.6662 31.4869Z" fill="url(#paint12_linear_1301_23351)"/>
<path d="M34.9438 41.8536C35.0959 40.0858 35.0432 38.3414 34.6571 36.6087C34.5517 35.0048 34.1539 33.477 33.5453 31.996C33.4634 31.4224 33.5863 30.9073 34.0837 30.4331C35.4294 32.8858 36.0145 35.5375 36.5763 38.2009C36.6816 39.3424 36.781 40.4838 36.8864 41.6253C35.406 44.2419 33.7384 46.2907 32.106 47.8887C32.5975 46.4136 33.2411 44.997 34.2182 43.7209C34.6688 43.1355 34.8853 42.5736 34.9438 41.8536Z" fill="url(#paint13_linear_1301_23351)"/>
<defs>
<linearGradient id="paint0_linear_1301_23351" x1="0.234559" y1="30.2926" x2="47.1844" y2="30.2926" gradientUnits="userSpaceOnUse">
<stop stop-color="#B8873D"/>
<stop offset="0.47" stop-color="#F5E482"/>
<stop offset="1" stop-color="#996E34"/>
</linearGradient>
<linearGradient id="paint1_linear_1301_23351" x1="7.30291" y1="51.0615" x2="34.417" y2="4.11923" gradientUnits="userSpaceOnUse">
<stop stop-color="#B8873D"/>
<stop offset="0.47" stop-color="#F5E482"/>
<stop offset="1" stop-color="#996E34"/>
</linearGradient>
<linearGradient id="paint2_linear_1301_23351" x1="0.000644817" y1="30" x2="47.1962" y2="30" gradientUnits="userSpaceOnUse">
<stop stop-color="#B8873D"/>
<stop offset="0.47" stop-color="#F5E482"/>
<stop offset="1" stop-color="#996E34"/>
</linearGradient>
<linearGradient id="paint3_linear_1301_23351" x1="3.77474" y1="29.9824" x2="43.4223" y2="29.9824" gradientUnits="userSpaceOnUse">
<stop stop-color="#B8873D"/>
<stop offset="0.47" stop-color="#F5E482"/>
<stop offset="1" stop-color="#996E34"/>
</linearGradient>
<linearGradient id="paint4_linear_1301_23351" x1="6.71777" y1="30.7493" x2="11.1237" y2="30.7493" gradientUnits="userSpaceOnUse">
<stop stop-color="#B8873D"/>
<stop offset="0.47" stop-color="#F5E482"/>
<stop offset="1" stop-color="#996E34"/>
</linearGradient>
<linearGradient id="paint5_linear_1301_23351" x1="5.71704" y1="23.9122" x2="11.9193" y2="23.9122" gradientUnits="userSpaceOnUse">
<stop stop-color="#B8873D"/>
<stop offset="0.47" stop-color="#F5E482"/>
<stop offset="1" stop-color="#996E34"/>
</linearGradient>
<linearGradient id="paint6_linear_1301_23351" x1="35.3711" y1="23.9122" x2="41.6436" y2="23.9122" gradientUnits="userSpaceOnUse">
<stop stop-color="#B8873D"/>
<stop offset="0.47" stop-color="#F5E482"/>
<stop offset="1" stop-color="#996E34"/>
</linearGradient>
<linearGradient id="paint7_linear_1301_23351" x1="5.52421" y1="23.0048" x2="41.8249" y2="23.0048" gradientUnits="userSpaceOnUse">
<stop stop-color="#B8873D"/>
<stop offset="0.47" stop-color="#F5E482"/>
<stop offset="1" stop-color="#996E34"/>
</linearGradient>
<linearGradient id="paint8_linear_1301_23351" x1="15.2782" y1="45.2663" x2="22.2411" y2="45.2663" gradientUnits="userSpaceOnUse">
<stop stop-color="#B8873D"/>
<stop offset="0.47" stop-color="#F5E482"/>
<stop offset="1" stop-color="#996E34"/>
</linearGradient>
<linearGradient id="paint9_linear_1301_23351" x1="24.7627" y1="45.4653" x2="32.1762" y2="45.4653" gradientUnits="userSpaceOnUse">
<stop stop-color="#B8873D"/>
<stop offset="0.47" stop-color="#F5E482"/>
<stop offset="1" stop-color="#996E34"/>
</linearGradient>
<linearGradient id="paint10_linear_1301_23351" x1="18.5899" y1="39.8577" x2="28.9465" y2="39.8577" gradientUnits="userSpaceOnUse">
<stop stop-color="#B8873D"/>
<stop offset="0.47" stop-color="#F5E482"/>
<stop offset="1" stop-color="#996E34"/>
</linearGradient>
<linearGradient id="paint11_linear_1301_23351" x1="10.8489" y1="39.278" x2="15.7054" y2="39.278" gradientUnits="userSpaceOnUse">
<stop stop-color="#B8873D"/>
<stop offset="0.47" stop-color="#F5E482"/>
<stop offset="1" stop-color="#996E34"/>
</linearGradient>
<linearGradient id="paint12_linear_1301_23351" x1="36.2486" y1="30.72" x2="40.6662" y2="30.72" gradientUnits="userSpaceOnUse">
<stop stop-color="#B8873D"/>
<stop offset="0.47" stop-color="#F5E482"/>
<stop offset="1" stop-color="#996E34"/>
</linearGradient>
<linearGradient id="paint13_linear_1301_23351" x1="32.106" y1="39.1609" x2="36.8864" y2="39.1609" gradientUnits="userSpaceOnUse">
<stop stop-color="#B8873D"/>
<stop offset="0.47" stop-color="#F5E482"/>
<stop offset="1" stop-color="#996E34"/>
</linearGradient>
</defs>
</svg>
