<svg width="48" height="61" viewBox="0 0 48 61" fill="none" xmlns="http://www.w3.org/2000/svg">
<path d="M47.0137 12.5829L23.9484 1.29117L0.397415 12.5829C-2.05423 53.8219 23.9542 60.6941 23.9542 60.6941C23.9542 60.6941 49.4712 53.8219 47.0196 12.5829H47.0137ZM23.9308 58.0482C23.9308 58.0482 0.239433 51.7848 2.47458 14.2219L23.9308 3.93702L44.9424 14.2219C47.1776 51.7848 23.9308 58.0482 23.9308 58.0482Z" fill="#8D734A"/>
<path d="M47.0265 12.1029L23.8442 0.700012L0.164478 12.1029C-2.30472 53.7576 23.8442 60.7 23.8442 60.7C23.8442 60.7 49.4957 53.7576 47.0265 12.1029ZM23.8325 59.5527C23.8325 59.5527 -1.43289 52.8737 0.948535 12.8171L23.8383 1.84733L46.2425 12.8171C48.6239 52.8795 23.8383 59.5527 23.8383 59.5527H23.8325Z" fill="#8D734A"/>
<path d="M23.8018 55.8122L23.6907 55.7829C23.4683 55.7244 18.1321 54.2551 12.9889 48.5185C4.4286 38.9712 3.32273 25.2327 3.90785 15.3868L3.9254 15.1351L23.8018 5.55853L43.2745 15.141L43.2921 15.3927C43.8772 25.2385 42.8065 38.9771 34.4159 48.5185C29.3722 54.2551 24.1354 55.7244 23.913 55.7829L23.8018 55.8122ZM4.74457 15.6912C4.20626 25.338 5.32383 38.661 13.5857 47.9039C18.1613 53.0258 23.0061 54.6766 23.796 54.9166C24.58 54.6707 29.3253 53.02 33.8015 47.9039C41.8995 38.661 42.982 25.3322 42.4437 15.6854L23.796 6.51268L4.74457 15.6912Z" fill="#8D734A"/>
<path d="M10.8438 28.2123C9.48636 30.7176 8.44485 33.3342 7.78952 36.0737C7.39164 34.8562 7.02886 33.5625 6.71875 32.181C6.90014 31.8532 7.08737 31.5254 7.27461 31.1976C8.439 29.7401 9.42784 28.1479 10.7736 26.8191C11.074 27.2835 11.0974 27.7479 10.8438 28.2123Z" fill="#8D734A"/>
<path d="M11.921 21.8668C10.9965 22.7624 9.79117 23.2893 8.93105 24.2493C7.7257 25.098 6.79537 26.2044 5.90599 27.3517C5.83577 26.7429 5.77141 26.1224 5.71875 25.4902C7.44485 23.8102 9.48691 22.5693 11.921 21.8668Z" fill="#8D734A"/>
<path d="M41.6436 25.4259C41.5967 26.0698 41.5324 26.6961 41.4622 27.3049C39.8004 25.1508 37.8227 23.3186 35.3711 21.9137C37.4249 22.1771 38.9813 23.3947 40.6137 24.4659C40.9707 24.7761 41.3159 25.0922 41.6436 25.4259Z" fill="#8D734A"/>
<path d="M41.7947 18.5887C41.4085 17.7283 40.8175 16.979 39.9398 16.3585C38.8281 15.3692 37.4882 15.299 36.1132 15.457C34.0477 15.697 32.111 16.3878 30.0045 17.3712C31.0987 16.1361 32.2689 15.498 33.5796 15.1058C34.8903 14.7195 36.2419 14.538 37.5994 14.4326H37.6462L31.7833 11.5468C30.9524 11.6522 30.145 11.98 29.3492 12.3956C27.3832 13.4375 26.0433 15.1292 24.8555 16.9029C25.0954 15.8492 25.5225 14.8307 26.055 13.8648C26.921 12.2785 28.0561 11.1253 29.4721 10.4112L26.4061 8.90094C25.9204 9.29314 25.464 9.77899 25.0486 10.3585C24.9959 10.4463 24.9433 10.54 24.8965 10.6395C24.4225 11.6756 23.8316 12.659 23.6911 13.6424C23.2464 11.8805 22.5326 10.2063 21.1225 8.97118L18.033 10.4639C19.0219 10.9907 19.8937 11.7458 20.6485 12.7409C21.5964 13.9995 22.0879 15.4395 22.5443 16.9087C20.2799 13.4258 17.9277 11.9273 15.6809 11.5936L9.80629 14.4268C10.5552 14.4444 11.2808 14.5848 12.0122 14.6961C14.0952 15.0063 15.9734 15.7556 17.5708 17.5351C16.4474 16.938 15.4819 16.5048 14.4697 16.1712C13.4223 15.8258 12.3457 15.5975 11.2515 15.4453C8.87595 15.1117 6.81634 16.0541 5.57589 18.0092C5.52323 19.3322 5.51153 20.6024 5.53493 21.8317C5.69291 21.7556 5.83919 21.6151 5.98547 21.5273C6.48282 21.2287 7.71157 20.2453 7.78178 20.2161C10.0871 19.1331 13.0829 18.1556 15.8154 19.4844C13.9197 19.9351 13.6622 20.3273 14.1303 22.1244C14.2707 22.657 14.1245 23.0434 13.7851 23.4239C12.7319 24.6297 12.4803 26.0756 12.5388 27.6092C12.9484 28.8736 13.908 29.6756 14.9553 30.378C15.4702 30.7175 15.7628 31.098 15.5112 31.7478C15.3883 32.058 15.3239 32.5146 15.6633 32.6434C16.2484 32.8717 15.9617 33.1761 15.8506 33.4863C15.5697 34.2824 15.4 35.0668 16.0261 35.7809C16.5585 36.3897 17.0325 37.0453 17.4128 37.7595C17.7112 38.3156 18.1735 38.5673 18.7878 38.4268C20.356 38.0639 21.8012 37.4609 22.8427 36.1556C23.4863 35.3536 23.4629 34.7683 22.7491 34.0131C22.3746 33.6092 21.8773 33.3341 21.5145 32.9185C21.3682 32.7605 21.1751 32.5848 21.2746 32.3448C21.3799 32.1048 21.6432 32.1283 21.8539 32.1224C22.7725 32.099 23.6911 32.0814 24.6098 32.1224C25.1305 32.1458 25.9321 31.8239 26.1018 32.3917C26.2715 32.9712 25.4933 33.299 25.031 33.6385C23.8491 34.499 23.7438 35.4414 24.7677 36.4834C25.4757 37.1975 26.3593 37.6541 27.2896 38.0346C29.1912 38.8073 29.4487 38.7253 30.4375 36.9868C30.5663 36.7644 30.7125 36.5536 30.8822 36.3546C32.0408 34.979 32.0817 34.3351 31.1221 32.7195C31.0519 32.6492 30.9583 32.5965 30.9056 32.5263C30.7125 32.2512 30.9758 32.5263 30.9641 32.4678C31.2625 32.5848 31.5258 32.977 31.9003 32.6024C31.3386 30.9985 32.5615 30.3487 33.5035 29.4824C35.0014 28.1068 35.3116 26.6609 34.627 25.0044C34.3988 24.4541 34.0477 23.98 33.6615 23.5351C33.2168 23.0083 33.094 22.4931 33.3397 21.8083C33.7317 20.6902 33.4801 20.2278 32.4152 19.7009C32.0993 19.5429 31.7716 19.4902 31.4732 19.4668C32.2163 19.4492 33.0296 19.2444 33.8546 19.3029C34.2584 19.3205 34.6562 19.3146 35.06 19.3146C35.5807 19.2736 36.0781 19.3907 36.5871 19.4551C37.9153 19.6131 39.1967 19.9 40.3845 20.5439C40.9462 20.8541 41.3383 21.1878 41.8181 21.5039C41.8298 20.5614 41.8239 19.5897 41.7947 18.5887ZM21.4969 26.4092C21.3624 26.7429 21.1693 27.0531 21.0054 27.3751C20.8709 26.6492 20.4613 26.497 19.8235 26.4385C18.6123 26.3331 17.407 26.1341 16.5761 25.0922C16.1841 24.5946 16.0612 24.1556 16.933 24.1263C18.0623 24.0853 19.1974 23.939 20.3209 24.2083C21.8714 24.577 22.0821 24.9692 21.4969 26.4092ZM30.8881 24.9809C30.0748 26.1283 28.8226 26.3214 27.5763 26.4385C26.9444 26.497 26.5289 26.6375 26.646 27.6151C25.9146 26.6141 25.306 25.7536 25.7156 24.9458C26.1311 24.1205 27.2018 24.1029 28.0912 24.0853C28.8987 24.0619 29.7061 24.097 30.5195 24.1322C31.1689 24.1614 31.2567 24.4717 30.8881 24.9809Z" fill="#8D734A"/>
<path d="M22.2367 46.8385C22.184 48.9459 22.184 51.059 22.1899 53.1664C20.9611 52.6278 19.1824 51.6795 17.2339 50.1283C17.1169 49.7595 17.1052 49.3673 16.994 49.0044C16.2509 46.6688 15.4727 44.3449 15.3148 41.8688C15.2504 40.8912 15.2504 39.9312 15.4669 38.7605C16.7658 40.6454 18.0063 42.3137 19.7265 43.5488C20.0835 43.8064 20.417 44.1459 20.8149 44.2864C22.0904 44.7195 22.2659 45.6093 22.2367 46.8385Z" fill="#8D734A"/>
<path d="M31.877 43.4258C31.5025 46.0189 30.66 48.4423 29.5658 50.7604C27.9743 51.9428 26.5407 52.7038 25.5109 53.1721C25.4758 53.1838 25.4349 53.2014 25.3998 53.2189C25.1657 53.3243 24.9492 53.4121 24.7678 53.4823C24.7795 52.5867 24.7971 51.7028 24.7795 50.8131C24.7503 49.4901 24.762 48.1731 24.7795 46.8501C24.7912 46.3819 24.5806 45.0355 26.2365 44.5848C26.4647 44.5848 30.5312 41.1019 31.7658 38.8423C32.4621 40.3526 32.0994 41.9155 31.877 43.4258Z" fill="#8D734A"/>
<path d="M27.6702 38.7782C25.0021 37.4377 22.2871 37.385 19.619 38.8718C19.5312 38.9069 17.77 40.1772 19.0514 41.5762C19.619 42.2025 20.2685 42.7294 21.1052 43.0455C21.1403 42.6708 21.1754 42.3255 21.2398 41.6055C21.6552 42.7762 22.2637 43.1391 23.1531 43.3264C23.2467 43.3557 23.3111 43.3264 23.3813 43.3264C24.61 43.3206 25.517 42.9986 26.0026 41.6933C26.1079 42.2494 26.1723 42.7762 26.2133 43.1099C26.933 42.8172 27.5239 42.4016 28.0505 41.8923C29.3378 40.6572 29.2617 39.5801 27.6702 38.7782Z" fill="#8D734A"/>
<path d="M15.7041 48.8111C14.0541 47.2775 12.3631 45.2989 10.8477 42.7701C10.9764 39.3399 11.62 35.9916 12.7902 32.7253C13.0535 32.2218 13.3227 31.7126 13.6211 31.1389C14.2413 31.7184 14.2589 32.2921 14.0131 33.0121C12.8956 36.2433 12.5738 39.5857 12.7902 42.9867C12.8078 43.2735 12.7727 43.5838 13.0009 43.8179C14.3759 45.2404 15.043 47.0257 15.7041 48.8111Z" fill="#8D734A"/>
<path d="M40.6682 32.1869C40.3639 33.5801 40.007 34.8854 39.6091 36.1088C39.1527 34.2474 38.5442 32.4152 37.7426 30.624C37.5495 30.1967 37.3096 29.7928 37.0931 29.3771C36.8825 28.9498 36.7245 28.4932 36.4612 28.1069C36.1452 27.6328 36.1803 27.2288 36.5899 26.7254C38.1112 28.464 39.5097 30.2669 40.6682 32.1869Z" fill="#8D734A"/>
<path d="M34.9433 42.5537C35.0954 40.7859 35.0428 39.0415 34.6566 37.3088C34.5513 35.7049 34.1534 34.1771 33.5449 32.6962C33.4629 32.1225 33.5858 31.6074 34.0832 31.1332C35.4289 33.5859 36.0141 36.2376 36.5758 38.901C36.6811 40.0425 36.7806 41.184 36.8859 42.3254C35.4055 44.942 33.7379 46.9908 32.1055 48.5888C32.597 47.1137 33.2406 45.6971 34.2177 44.421C34.6683 43.8357 34.8848 43.2737 34.9433 42.5537Z" fill="#8D734A"/>
</svg>
