<svg width="56" height="60" viewBox="0 0 56 60" fill="none" xmlns="http://www.w3.org/2000/svg">
<g style="mix-blend-mode:darken">
<path fill-rule="evenodd" clip-rule="evenodd" d="M9.39976 21.9609C9.02274 22.6207 8.1556 22.8281 7.49582 22.4322L0.671799 18.3227C0.012018 17.908 -0.195342 17.0597 0.200527 16.3999C0.577545 15.759 1.44469 15.5328 2.10447 15.9286L8.94734 20.057C9.56942 20.434 9.79563 21.3011 9.38091 21.9609H9.39976Z" fill="#8CC541"/>
</g>
<g style="mix-blend-mode:darken">
<path fill-rule="evenodd" clip-rule="evenodd" d="M33.5472 10.8014C32.7555 10.6883 32.2465 9.97194 32.3785 9.19905L33.6415 1.30053C33.7357 0.52764 34.452 0.0186656 35.2061 0.150622H35.2438C35.9978 0.263727 36.5068 0.980061 36.3937 1.75295L35.1307 9.63262C35.0176 10.4055 34.3012 10.9145 33.5472 10.8014Z" fill="#FCEE21"/>
</g>
<g style="mix-blend-mode:darken">
<path fill-rule="evenodd" clip-rule="evenodd" d="M21.3132 13.4218C20.5969 13.7611 19.7863 13.4595 19.4281 12.7808L15.8841 5.61751C15.5637 4.93887 15.8464 4.10943 16.5439 3.75127C17.2226 3.3931 18.052 3.67586 18.4102 4.37335L21.9353 11.5367C22.2746 12.2342 22.0107 13.0636 21.3132 13.4218Z" fill="#F69321"/>
</g>
<g style="mix-blend-mode:darken">
<path fill-rule="evenodd" clip-rule="evenodd" d="M43.9909 11.6873C43.4253 11.1406 43.4065 10.2546 43.9154 9.70794L49.3257 3.82647C49.8346 3.26094 50.7395 3.24209 51.2861 3.75106C51.8517 4.26004 51.8705 5.14603 51.3804 5.71156L45.9702 11.593C45.4612 12.1586 44.5564 12.1963 43.9909 11.6873Z" fill="#27B0E5"/>
</g>
<g style="mix-blend-mode:darken">
<path fill-rule="evenodd" clip-rule="evenodd" d="M55.6033 47.6172C56.263 49.9547 54.8681 52.3864 52.5494 53.0274L28.3637 59.7194C26.0262 60.3792 23.5944 59.0031 22.9535 56.6844C22.3314 54.3846 23.6699 51.934 26.0074 51.2742L50.2119 44.5822C52.5306 43.9412 54.9623 45.2985 55.6033 47.6172Z" fill="#27B0E5"/>
</g>
<g style="mix-blend-mode:darken">
<path fill-rule="evenodd" clip-rule="evenodd" d="M50.4003 44.582C51.0412 46.9384 49.6651 49.3513 47.3653 49.9922L23.1796 56.7031C20.8421 57.3252 18.4104 55.968 17.7883 53.6493C17.1285 51.3306 18.5046 48.8989 20.8233 48.2579L45.009 41.5282C47.3465 40.8872 49.7782 42.2822 50.4192 44.582H50.4003Z" fill="#3BB34A"/>
</g>
<g style="mix-blend-mode:darken">
<path fill-rule="evenodd" clip-rule="evenodd" d="M17.091 30.1802C16.4877 27.9935 17.7696 25.7314 19.9563 25.1282L42.5962 18.832C44.7829 18.2288 47.045 19.5106 47.6294 21.6973C48.2326 23.8652 46.9696 26.1462 44.8018 26.7494L22.143 33.0267C19.9751 33.63 17.6942 32.3481 17.091 30.1802Z" fill="#E175AC"/>
</g>
<g style="mix-blend-mode:darken">
<path fill-rule="evenodd" clip-rule="evenodd" d="M50.9472 49.4269C48.7793 50.0489 46.5172 48.7482 45.914 46.5804L39.6178 23.9216C39.0334 21.7538 40.3153 19.4728 42.4643 18.8696C44.651 18.2475 46.9131 19.5293 47.5163 21.6972L53.8125 44.3748C54.3969 46.5238 53.115 48.8236 50.9472 49.408V49.4269Z" fill="#F69321"/>
</g>
<g style="mix-blend-mode:darken">
<path fill-rule="evenodd" clip-rule="evenodd" d="M46.1777 46.6556C43.991 47.2399 41.7289 45.9581 41.1257 43.8091L34.8295 21.1315C34.2451 18.9448 35.527 16.6827 37.6948 16.0606C39.8627 15.4762 42.1625 16.7581 42.7469 18.9259L49.0431 41.6224C49.6086 43.7714 48.3833 46.0523 46.1777 46.6556Z" fill="#EF4137"/>
</g>
<g style="mix-blend-mode:darken">
<path fill-rule="evenodd" clip-rule="evenodd" d="M14.8852 22.5829C17.0907 21.9797 19.3717 23.2615 19.9561 25.4482L26.2523 48.107C26.8555 50.2749 25.5548 52.5558 23.3869 53.159C21.2191 53.7623 18.9381 52.4804 18.3537 50.3126L12.0387 27.6538C11.4354 25.4671 12.7173 23.1861 14.8852 22.6017V22.5829Z" fill="#C51B8B"/>
</g>
<g style="mix-blend-mode:darken" opacity="0.6">
<path fill-rule="evenodd" clip-rule="evenodd" d="M12.1702 27.4654C11.567 25.2787 12.8488 22.9978 15.0355 22.3945L37.6754 16.0983C39.8621 15.514 42.1431 16.7958 42.7275 18.9637C43.3496 21.1315 42.03 23.4125 39.881 24.0346L17.2222 30.3308C15.0355 30.934 12.7546 29.6333 12.1702 27.4843V27.4654Z" fill="#27B0E5"/>
</g>
<g style="mix-blend-mode:darken">
<path fill-rule="evenodd" clip-rule="evenodd" d="M19.7865 25.3351C21.9544 24.7319 24.2353 26.0138 24.8197 28.1816L31.1536 50.8592C31.738 53.0459 30.4561 55.308 28.2883 55.9113C26.1016 56.5333 23.8395 55.2326 23.2174 53.0459L16.94 30.3872C16.3368 28.2193 17.6187 25.9195 19.7865 25.3351Z" fill="#FCEE21"/>
</g>
</svg>
