<svg width="28" height="28" viewBox="0 0 28 28" fill="none" xmlns="http://www.w3.org/2000/svg">
<mask id="mask0_70_10065" style="mask-type:alpha" maskUnits="userSpaceOnUse" x="0" y="0" width="28" height="28">
<rect width="28" height="28" fill="#D9D9D9"/>
</mask>
<g mask="url(#mask0_70_10065)">
<path d="M11.375 15.75C11.375 13.397 12.1965 11.4039 13.8397 9.77057C15.4828 8.13724 17.4806 7.32057 19.8331 7.32057V8.77937C17.8889 8.77937 16.2362 9.4551 14.875 10.8066C13.5137 12.1576 12.8331 13.8054 12.8331 15.75H11.375ZM14.9044 15.75C14.9044 14.3887 15.3855 13.2269 16.3478 12.2647C17.3105 11.3019 18.4723 10.8206 19.8331 10.8206V12.2794C18.861 12.2794 18.0394 12.6196 17.3684 13.3C16.6978 13.9804 16.3625 14.797 16.3625 15.75H14.9044ZM5.97937 6.85437C5.43477 6.85437 4.97277 6.65977 4.59337 6.27057C4.21444 5.88184 4.02497 5.42497 4.02497 4.89997C4.02497 4.35537 4.21444 3.8887 4.59337 3.49997C4.97277 3.11124 5.43477 2.91687 5.97937 2.91687C6.5235 2.91687 6.99017 3.11124 7.37937 3.49997C7.7681 3.8887 7.96247 4.35537 7.96247 4.89997C7.96247 5.44457 7.7681 5.90634 7.37937 6.28527C6.99017 6.66467 6.5235 6.85437 5.97937 6.85437ZM2.91687 12.6294V10.1206C2.91687 9.77057 3.048 9.46444 3.31027 9.20217C3.573 8.93944 3.87937 8.80807 4.22937 8.80807H7.72937C8.6627 8.80807 9.46957 8.536 10.15 7.99187C10.8304 7.44727 11.2872 6.74727 11.5206 5.89187H13.0081C12.8331 6.90267 12.386 7.78724 11.6669 8.54557C10.9473 9.3039 10.0723 9.8289 9.04187 10.1206V12.6294H2.91687ZM22.0206 19.3081C21.4764 19.3081 21.0098 19.1186 20.6206 18.7397C20.2318 18.3603 20.0375 17.8985 20.0375 17.3544C20.0375 16.8098 20.2318 16.3431 20.6206 15.9544C21.0098 15.5652 21.4764 15.3706 22.0206 15.3706C22.5652 15.3706 23.0318 15.5652 23.4206 15.9544C23.8098 16.3431 24.0044 16.8098 24.0044 17.3544C24.0044 17.8985 23.8098 18.3603 23.4206 18.7397C23.0318 19.1186 22.5652 19.3081 22.0206 19.3081ZM18.9581 25.0831V22.575C17.9473 22.3029 17.0821 21.7877 16.3625 21.0294C15.6429 20.271 15.186 19.3862 14.9919 18.375H16.4794C16.7127 19.2304 17.1696 19.9304 17.85 20.475C18.5304 21.0196 19.3372 21.2919 20.2706 21.2919H23.7706C24.1402 21.2919 24.4514 21.4181 24.7044 21.6706C24.9568 21.9235 25.0831 22.2348 25.0831 22.6044V25.0831H18.9581Z" fill="#00263D"/>
</g>
</svg>
